<?xml version="1.0" encoding="UTF-8"?>
<svg id="Layer_1" data-name="Layer 1" xmlns="http://www.w3.org/2000/svg" viewBox="0 0 1536 1209.75">
  <defs>
    <style>
      .cls-1 {
        fill: #231f20;
      }

      .cls-1, .cls-2 {
        stroke-width: 0px;
      }

      .cls-3 {
        fill: #2d3748;
        font-family: UniSansSemiBold, 'Uni Sans';
        font-size: 29.07px;
        letter-spacing: .13em;
      }

      .cls-2 {
        fill: #353a4e;
      }

      .cls-4 {
        fill: none;
        stroke: #24a3c8;
        stroke-miterlimit: 10;
        stroke-width: 3px;
      }
    </style>
  </defs>
  <text class="cls-3" transform="translate(469.07 755.68) scale(1 1.07)"><tspan x="0" y="0">Digital Marketing &amp; IT Soluotion Agency</tspan></text>
  <path class="cls-2" d="M680.89,573.52c17.66-18.28,35.33-36.56,53.36-55.23-25.01-12.76-51.88-13.09-79.49-11.29,8.02-26.04,8.38-51.5-5.89-75.88-14.37-24.56-39.07-38.74-68.1-48.49,15.56-3.9,56.24-3.08,91.39,7.11,29.76,8.63,56.24,22.11,80.62,39.42-3.75-7.09-7.5-14.18-11.25-21.27,17.11,13.19,31.6,27.83,37.06,47.7.39.02.78.03,1.17.05.7-1.1,1.65-2.13,2.08-3.3,3.16-8.69,6.21-17.41,9.5-26.69,1.49,2.24,2.57,4.23,4.04,5.96,1.45,1.7,3,3.62,5.04,4.62,6.21,3.06,12.31.09,12.86-6,.1-1.05.01-2.12.01-4.15,2.94,3.18,5.28,5.71,7.88,8.52,35.15-29.58,69.08-59.94,106.87-86.84-5.75,5.71-11.42,11.48-17.26,17.12-35.33,34.13-70.37,68.5-106.15,102.28-37.72,35.61-75.9,70.89-117.98,102.82-1.75,1.33-3.55,2.6-5.33,3.9l-.43-.36Z"/>
  <path class="cls-2" d="M570.7,676.64c.04.11.07.22.1.33.07.23.15.46.21.69-.09-.34-.19-.68-.31-1.02Z"/>
  <path class="cls-2" d="M885.87,632.34c-12.68-.09-25.38.07-38.06.14-10.37.05-18.79,6.05-20.67,16.28-2.49,13.64-4.4,27.43-5.62,41.25-.99,11.26,5.17,16.91,16.67,16.93h18.25v-.05c6.77,0,13.55.17,20.32-.03,11.05-.33,18.8-6.94,20.56-17.78,2.04-12.51,3.9-25.03,5.44-37.61,1.46-11.97-4.89-19.03-16.89-19.12ZM882.84,657.65c-.75,7.9-1.83,15.8-3.22,23.62-1.13,6.31-6.58,10.99-12.99,11.15-2.77.07-5.55,0-8.32,0v-.02h-3.13c-12.32-.02-15.13-3.17-13.5-15.31.84-6.18,1.76-12.35,2.73-18.51,1.15-7.15,5.34-11.17,12.53-11.62,5.36-.31,10.77-.3,16.13-.1,6.65.23,10.42,4.21,9.78,10.79Z"/>
  <path class="cls-2" d="M962.77,632.51h18.79c-1.29,9.4-2.49,18.48-3.78,27.55-1.44,10.14-2.64,20.34-4.55,30.4-1.79,9.47-9.55,15.82-19.21,16.11-10.77.32-21.55.41-32.33.24-11.5-.18-17.64-7.94-16.04-19.36,2.35-16.69,4.58-33.39,6.68-50.11.44-3.5,1.44-5.37,5.42-5.09,4.64.32,9.32.07,14.38.07-2.12,15.67-4.17,30.79-6.18,45.91-.25,1.89-.72,3.93-.25,5.68.6,2.23,1.82,5.88,3.17,6.07,6.53.89,13.37,1.86,19.76.77,4.97-.85,6.94-6.18,7.63-11.38,2.05-15.47,4.29-30.92,6.51-46.84Z"/>
  <path class="cls-2" d="M1037.51,632.11c-14.07-.37-28.18-.19-42.25.05-1.34.02-3.64,2.02-3.83,3.34-3.41,23.38-6.56,46.79-9.9,71.13,5.55,0,10.39-.09,15.2.03,3.1.07,4.12-1.24,4.42-4.3.63-6.38,1.93-12.72,2.57-19.1.33-3.31,1.91-3.97,4.77-3.88,4.68.16,9.38.14,14.07.1,12.28-.07,23.07-3.2,29.73-14.68,9.22-15.88,1.95-32.27-14.79-32.7ZM1029.02,664.21c-7.34.63-14.77.16-21.95.16-.24-.61-.37-.77-.35-.92q.47-16.82,16.94-16.82c1.22,0,2.44.09,3.64,0,4.61-.35,8.44.57,9.17,6.02.7,5.15-2.66,11.15-7.44,11.57Z"/>
  <path class="cls-2" d="M583.11,708.18c-3.83.14-7.79-.11-11.85-.22l11.85.22Z"/>
  <rect class="cls-2" x="753.34" y="633.33" width="68.61" height=".01"/>
  <path class="cls-2" d="M1014.4,682.3c7.25,0,13.47-.09,19.69.08,1.15.03,2.63.83,3.29,1.77,4.88,6.91,9.58,13.94,15.28,22.33-7.71,0-14.17.14-20.61-.12-1.21-.05-2.67-1.49-3.47-2.67-4.59-6.72-9.01-13.56-14.18-21.39Z"/>
  <path class="cls-2" d="M637.94,707.84c-.69,0-1.37,0-2.06-.01-.01,0-.02,0-.03,0h.03l2.06.02Z"/>
  <path class="cls-2" d="M716.06,682.76c.17-1.9.37-3.43.43-4.98.18-4.05,2.02-5.53,6.26-5.35,8.46.36,16.94.11,26.19.11-.5,3.57-.94,6.7-1.44,10.22h-31.44Z"/>
  <g>
    <g>
      <path class="cls-1" d="M758.95,553.48c-.04.24-.13.36-.32.39-.16.02-.28-.07-.35-.2-.07-.14-.13-.3-.17-.46-.26-.98-.65-1.91-1.25-2.75-.08-.11-.16-.24-.2-.37-.07-.19-.03-.38.18-.47.18-.08.32,0,.43.16.12.17.25.35.37.52.56.83.95,1.74,1.22,2.69.05.18.07.36.1.49Z"/>
      <path class="cls-1" d="M760.08,560.51c-.06.29-.16.5-.47.46-.27-.04-.32-.26-.32-.48,0-.37.02-.74.02-1.11,0-.76-.01-1.53-.17-2.29-.02-.09-.05-.18-.04-.27,0-.17.07-.32.26-.36.2-.04.32.07.4.22.03.06.05.13.07.2.29,1.21.24,2.44.24,3.63Z"/>
      <path class="cls-1" d="M759.36,567.02c.25.49.47.99.66,1.51,0,0,.01,0,.02,0,.2-.04.25-.19.26-.36,0-.09,0-.19-.03-.28-.19-.83-.22-1.66-.19-2.5.01-.32-.04-.65-.06-.98-.01-.19-.12-.3-.29-.35-.25-.03-.45.17-.44.52.01.44.05.88.03,1.33-.01.37,0,.74.04,1.11Z"/>
      <path class="cls-1" d="M790.06,581.49c.24.04.38.07.49.16.22.18.19.47-.07.56-.15.05-.33.06-.49.04-.89-.11-1.77-.03-2.63.14-.07.01-.14.02-.21.04-.26.05-.51.02-.57-.27-.06-.26.15-.35.38-.41,1.05-.26,2.11-.35,3.1-.26Z"/>
      <path class="cls-1" d="M773.65,582.97c.57.17,1.15.34,1.72.51.16.05.32.11.46.19.13.07.21.2.18.35-.03.19-.18.27-.35.28-.12,0-.24-.01-.35-.05-.82-.25-1.65-.51-2.47-.77-.11-.04-.23-.08-.33-.14-.15-.1-.25-.24-.17-.42.07-.18.23-.23.41-.18.3.07.6.16.9.24,0,0,0,0,0,0Z"/>
      <path class="cls-1" d="M780.05,584.58c-.26-.07-.35-.37-.16-.55.06-.06.16-.11.24-.14.71-.26,1.43-.51,2.14-.75.22-.07.46-.13.7-.07.15.04.26.12.3.27.04.16-.03.31-.17.34-1,.22-1.91.69-2.91.91-.04,0-.09,0-.14-.01Z"/>
      <path class="cls-1" d="M758.92,553.52c-.04.2-.12.3-.28.33-.16.03-.28-.06-.36-.19-.07-.12-.11-.26-.15-.39-.26-1.01-.66-1.96-1.27-2.82-.08-.11-.16-.24-.2-.37-.05-.16-.02-.33.16-.42.19-.1.32,0,.43.14.8,1.06,1.35,2.22,1.65,3.49.02.09.01.18.02.23Z"/>
      <path class="cls-1" d="M760.05,560.57c-.04.2-.13.39-.39.39-.28,0-.34-.22-.34-.45,0-.3.02-.6.02-.9,0-.86,0-1.72-.18-2.57-.05-.24-.1-.5.24-.54.31-.04.39.21.45.44.11.46.16.92.19,1.38.05.74.06,1.48.02,2.25Z"/>
      <path class="cls-1" d="M759.34,566.49c0,.19.02.37.04.56.24.47.44.95.63,1.45,0,0,0,0,.01,0,.17-.03.23-.14.27-.35-.02-.12-.03-.31-.07-.49-.14-.59-.18-1.2-.16-1.8.01-.42-.02-.83-.05-1.25-.01-.24.02-.49-.31-.54-.24-.04-.42.18-.39.53.06.63.02,1.25.03,1.87Z"/>
      <path class="cls-1" d="M790.67,582.01c-.07.17-.22.23-.4.22-.24,0-.48-.03-.71-.04-.69-.03-1.38.03-2.06.15-.16.03-.33.06-.49.08-.22.02-.38-.07-.42-.29-.03-.19.1-.29.27-.35.07-.02.14-.04.21-.05.95-.22,1.92-.31,2.9-.23.19.02.38.03.55.15.13.09.2.2.15.36Z"/>
      <path class="cls-1" d="M774.16,583.13c.45.14.96.28,1.46.45.21.07.43.17.37.44-.07.3-.34.3-.58.23-.9-.26-1.79-.54-2.68-.82-.09-.03-.17-.08-.25-.14-.12-.1-.17-.23-.11-.37.06-.14.19-.21.34-.17.46.12.93.25,1.45.39Z"/>
      <path class="cls-1" d="M783.26,583.42c-.02.18-.15.29-.32.31-.83.13-1.56.52-2.35.74-.14.04-.27.08-.41.09-.16.02-.27-.07-.33-.21-.06-.15,0-.27.12-.36.06-.04.12-.07.19-.09.71-.25,1.42-.51,2.13-.75.22-.07.45-.14.7-.08.19.04.29.15.29.35Z"/>
    </g>
    <g>
      <path class="cls-1" d="M783.44,532.15c-3.08-.69-6.21,1.25-6.88,4.26-.65,2.92,1.31,5.88,4.35,6.57,3.16.72,6.28-1.19,6.93-4.24.65-2.99-1.3-5.9-4.4-6.59ZM787.11,538.51c-.54,2.66-3.28,4.36-6.03,3.75-2.62-.58-4.27-3.08-3.74-5.65.55-2.65,3.2-4.31,5.97-3.71,2.62.56,4.31,3.07,3.8,5.61Z"/>
      <path class="cls-1" d="M783.49,537.15c-.48-.14-.59-.4-.57-.8.02-.21-.05-.42.08-.61.24-.01.38.2.59.26.13.05.26.15.38,0,.1-.13.03-.25-.06-.38-.29-.37-.84-.45-1.08-.89-.03-.05-.12-.02-.19.02-.38.25-.74.25-1.08-.19.03.47-.19.69-.56.82-.13.04-.25.13-.36.21-.38.28-.67.62-.58,1.11.09.49.47.68.92.78.23.05.54.08.47.4-.12.51.25,1.13-.31,1.54-.1.07-.23.07-.34.12-.11.04-.22.09-.31.16-.14.1-.24.24-.16.42.08.2.25.17.42.13.18-.03.33-.18.54-.1.04.21.08.42.13.62.04.12.14.21.27.19.12-.01.22-.1.24-.22.02-.14.01-.28.01-.42,0-.17.02-.34.25-.32.18.02.41-.02.46.24,0,.07,0,.14.04.21.05.13.08.29.27.26.18-.03.2-.19.18-.33-.03-.29.1-.4.39-.44.74-.1,1.09-.37,1.05-1.45-.03-.69-.45-1.15-1.09-1.34ZM781.5,536.57c-.01.13.01.31-.16.34-.18.02-.39-.02-.51-.18-.12-.15-.04-.31.07-.43.13-.15.29-.29.5-.32.19.19.11.4.1.59ZM781.87,536.16q.01-.53.65-.62c.16.35.05.72.08,1.08.04.32-.22.28-.42.3-.22.03-.31-.08-.31-.27-.01-.16-.01-.32,0-.49ZM782.25,539.37c-.24-.01-.34-.12-.34-.35,0-.37,0-.74-.03-1.12-.01-.22.07-.35.32-.34.21,0,.38.04.39.31.01.39.04.79.07,1.18-.05.23-.17.32-.41.32ZM783.89,538.85c-.02.23-.14.37-.38.43-.23.06-.41.07-.42-.26,0-.29-.04-.59-.07-.89-.01-.13-.07-.29.09-.36.14-.06.27.03.4.11.38.23.41.58.38.97Z"/>
    </g>
    <path class="cls-1" d="M717.58,559.09c-.23-.66-.55-1.22-.97-1.68-.16-.18-.34-.35-.54-.51-.13.22-.26.43-.41.64.14.12.27.24.39.38.25.3.47.63.64,1,.56,1.24.48,2.44-.34,3.5-.5.64-1.11,1.03-1.82,1.23.02.25.02.51.02.76.09-.02.18-.03.27-.06,2.31-.7,3.53-3,2.76-5.26Z"/>
    <path class="cls-1" d="M790.59,491.37c.14.47.17.99.06,1.51-.32,1.56-1.74,2.6-3.29,2.53-.19.23-.37.46-.56.69,2.11.38,4.16-.96,4.6-3.05.17-.84.06-1.67-.27-2.38-.18.23-.37.46-.55.7Z"/>
    <g>
      <path class="cls-1" d="M786.59,599.47c.1-.22.2-.45.32-.67-.76-.5-1.2-1.45-1-2.4.25-1.26,1.45-2.06,2.69-1.8.46.1.86.34,1.17.66.2-.16.39-.32.6-.47-.04-.04-.07-.09-.11-.13-.38-.37-.86-.65-1.41-.78-1.62-.4-3.29.63-3.67,2.27-.31,1.34.31,2.66,1.42,3.32Z"/>
      <path class="cls-1" d="M786.97,597.56c-.13-.81.33-1.43.67-2.09.03.78-.51,1.38-.67,2.09Z"/>
    </g>
    <g>
      <path class="cls-1" d="M825.44,491.42c-.3-.37-.65-.7-1.04-.98-1.69-1.23-3.57-2.03-5.62-2.45-.68-.14-1.37-.22-2.07-.11-.66.12-1.15.42-1.36,1.07-.11.33-.24.65-.36.98-.29.86.02,1.58.68,2.14,1.63,1.37,3.5,2.33,5.59,2.83.73.16,1.47.23,2.21.27.93.05,1.7-.21,2.06-1.14.08-.23.19-.44.27-.67,0-.01.01-.03.01-.04.06-.18.1-.36.11-.53.04-.49-.13-.95-.48-1.37ZM823.66,494.41c-.12,0-.25-.01-.37-.01-.04,0-.08-.01-.11-.01-.46-.02-.91-.06-1.36-.13-.06,0-.13-.02-.19-.04-.39-.06-.77-.16-1.15-.3-.12-.05-.25-.09-.37-.14-.04-.02-.08-.03-.13-.05-.47-.18-.93-.38-1.38-.61-.02,0-.04-.01-.06-.02-.43-.22-.85-.45-1.26-.71-.02-.01-.05-.03-.08-.05-.32-.21-.64-.44-.94-.69-.07-.06-.13-.11-.19-.16l-.06-.06c-.41-.42-.47-.81-.24-1.43.17.16.35.31.52.47.04.02.08.06.12.09.37.31.75.59,1.13.86.04.02.08.05.12.08.38.25.77.48,1.17.7.06.03.11.05.17.08.44.23.89.42,1.35.6.02.01.05.02.08.03.5.19,1.02.34,1.55.46.05,0,.1.03.15.04.44.09.88.17,1.34.21.07.02.14.02.21.02.37.05.75.07,1.14.08-.15.6-.64.7-1.16.69ZM824.55,492.89c-.4.07-.81.07-1.21,0-.31-.05-.61-.13-.92-.19-1.77-.4-3.41-1.11-4.88-2.18-.43-.31-.82-.65-1.1-1.1-.26-.43-.16-.65.31-.77.32-.09.67-.1.99-.06,2.51.32,4.76,1.24,6.7,2.87.18.15.35.33.48.52.38.54.27.8-.37.91Z"/>
      <path class="cls-1" d="M821.9,490.91c-.18-.13-.37-.22-.55-.34-.09-.05-.12-.14-.08-.24.03-.11.12-.12.22-.11.17.02.3.15.6.08-.38-.3-.75-.46-1.12-.6-.44-.16-.91-.27-1.39-.25-.19.01-.4.03-.45.26-.05.22.1.35.26.46.06.04.13.06.19.09.13.09.35.13.22.36-.1.17-.25.16-.43.08-.35-.15-.7-.29-1.13-.46.31.57,1.06.48,1.24,1.04,0,0,.05,0,.07-.01.37-.2.68.05.91.22.38.29.79.24,1.2.27.23.03.48-.08.55-.35.06-.25-.14-.38-.31-.5ZM819.4,489.73c.36-.09.66-.05.97.12-.37.37-.43.36-.97-.12ZM820.76,490.94c-.05.2-.19.25-.38.17-.15-.06-.41-.08-.32-.34.06-.2.25-.24.46-.18.19.05.3.14.24.35ZM820.67,490.31s-.14-.04-.09-.13c.07-.11.15-.23.31-.2.12.02.14.1.11.2-.05.16-.16.2-.33.13ZM821.12,491.41c-.18-.04-.21-.16-.16-.31.05-.2.18-.28.36-.18.2.11.45.17.52.43-.22.23-.47.11-.72.06Z"/>
      <path class="cls-1" d="M822.09,493.17c.15.53-.13.9-.5,1.41.02-.63.3-1.01.5-1.41Z"/>
      <path class="cls-1" d="M817.18,492.57c0-.53.19-.99.56-1.38-.09.49-.26.95-.56,1.38Z"/>
      <path class="cls-1" d="M819.85,494.02c.19-.42.37-.84.56-1.27.08.61,0,.8-.56,1.27Z"/>
      <path class="cls-1" d="M823.24,492.62q.45-.64.46-1.26c.44.46.35.76-.46,1.26Z"/>
      <path class="cls-1" d="M819.08,491.84c-.06.62-.23,1.03-.55,1.38.06-.46.18-.88.55-1.38Z"/>
      <path class="cls-1" d="M823.13,494.58c.1-.52.3-.83.49-1.28.13.57.09.66-.49,1.28Z"/>
      <path class="cls-1" d="M816.01,491.63c-.03-.51.09-.99.44-1.39,0,.5-.22.95-.44,1.39Z"/>
    </g>
    <g>
      <path class="cls-1" d="M827.85,502.89c-.21-.58-.62-.99-1.18-1.26-.69-.34-1.41-.48-2.16-.53-2.61-.18-5.08.3-7.43,1.34-.79.34-1.51.77-2.12,1.38-.58.57-.84,1.27-.72,2.08.06.42.16.83.25,1.24.17.78.65,1.29,1.44,1.52.34.1.69.21.87.27,1.47.3,2.77.28,4.08.05,1.86-.33,3.69-.7,5.34-1.64.49-.28.98-.56,1.4-.94.49-.45.75-.97.67-1.67-.08-.63-.22-1.24-.44-1.84ZM815.23,504.71c.23-.36.55-.63.9-.87.56-.39,1.16-.71,1.81-.95,2.22-.85,4.51-1.26,6.93-1.01.56.06,1.08.21,1.57.47.64.34.75.82.33,1.39-.3.42-.72.73-1.16,1-1.87,1.1-3.93,1.6-6.09,1.78-.91.08-1.81.07-2.72-.11-.44-.1-.89-.19-1.28-.45-.53-.36-.62-.73-.29-1.25ZM827.45,505.33c-.03.1-.08.19-.16.27-.08.13-.2.25-.34.36-.2.15-.41.3-.62.43-.02.02-.05.04-.08.05-.36.23-.73.44-1.12.61-.03.02-.05.03-.08.04-.48.23-.99.41-1.51.55-.04.01-.09.02-.13.03-.6.17-1.2.31-1.81.42-.06.02-.12.03-.18.03-.53.11-1.05.19-1.58.25-.65.08-1.29.1-1.93.03-.04-.01-.07-.01-.11-.02-.48-.05-.96-.15-1.43-.31-.02,0-.03,0-.05,0-.03-.01-.07-.02-.1-.03-.75-.25-.89-.42-1.03-1.32.24.1.48.18.72.25.05.01.1.03.15.05.45.12.9.2,1.35.25.05.01.1.02.15.02.47.05.94.06,1.41.03.05,0,.09,0,.14,0,.68-.02,1.37-.11,2.05-.24.06,0,.12-.02.18-.03.12-.02.23-.04.35-.07.45-.09.89-.19,1.32-.31.03-.01.07-.02.1-.03.56-.15,1.1-.34,1.63-.57.02-.01.03-.01.05-.02.39-.17.77-.37,1.13-.6.06-.04.12-.07.18-.11.34-.23.67-.48.98-.76.04-.03.07-.06.1-.08l.27-.27c.13.43.13.8,0,1.11Z"/>
      <path class="cls-1" d="M822.72,503.76c-.42-.14-.85-.15-1.28-.11-.24.02-.34-.12-.38-.33-.03-.2-.01-.36.24-.43.19-.05.44-.03.57-.28-.58-.24-1.14.09-1.7,0-.25.38-.75.37-1.06.66-.25.24-.68.42-.5.82.18.41.61.26.96.23.57-.06.6-.02.58.51-.01.24-.1.33-.33.35-.38.03-.76.08-1.14.14-.14.02-.35-.04-.38.2.39.21.8.12,1.2.08.42-.06.74-.01.87.49.08-.28.01-.54.42-.65.47-.12.47.3.8.6-.17-.61.03-.84.47-.94.32-.07.6-.27.86-.47.16-.13.4-.23.35-.47-.05-.27-.32-.33-.55-.4ZM818.93,503.94c.34-.39.68-.58,1.1-.69.05.73-.2.89-1.1.69ZM820.38,503.32c-.03-.13.06-.25.19-.23.3.04.17.31.23.47,0,.16-.11.21-.23.19-.3-.04-.16-.28-.19-.43ZM820.52,505.02c-.19-.16-.08-.39-.12-.59-.03-.14.03-.27.2-.31.12-.02.25-.05.32.07.11.21.14.44.16.67-.05.14-.43.26-.56.16ZM821.64,504.84c-.13.03-.22,0-.29-.13-.24-.49-.11-.71.44-.74.35-.02.69.02,1.09.2-.38.37-.8.54-1.24.67Z"/>
      <path class="cls-1" d="M823.13,502.3c1.28-.03,1.72.18,2.03.96-.35-.2-.57-.48-.91-.58-.32-.09-.7-.07-1.12-.38Z"/>
      <path class="cls-1" d="M821.18,506.67c.32.64.41,1.22.46,1.81-.38-.5-.56-1.21-.46-1.81Z"/>
      <path class="cls-1" d="M817.37,506.97c.38.52.48,1.12.59,1.71-.32-.53-.56-1.09-.59-1.71Z"/>
      <path class="cls-1" d="M826.06,505.25c.25.41.32.86.24,1.36-.14-.43-.28-.86-.42-1.29.06-.02.12-.05.18-.07Z"/>
      <path class="cls-1" d="M816.04,505.1c.1-.55.36-.96.93-1.11-.31.37-.62.74-.93,1.11Z"/>
      <path class="cls-1" d="M827.03,504.33c.44.43.41.93.44,1.43-.05,0-.1.02-.15.02-.1-.48-.2-.97-.29-1.45Z"/>
      <path class="cls-1" d="M825.14,507.26c-.26-.4-.4-.83-.41-1.29.38.36.38.83.41,1.29Z"/>
      <path class="cls-1" d="M815.82,506.72c.45.4.53.94.56,1.49-.19-.5-.37-1-.56-1.49Z"/>
      <path class="cls-1" d="M823.42,507.67c-.28-.35-.35-.76-.45-1.18.37.32.39.75.45,1.18Z"/>
      <path class="cls-1" d="M819,506.89c.16.57.29,1.03.42,1.5-.42-.53-.51-.86-.42-1.5Z"/>
    </g>
    <g>
      <path class="cls-1" d="M801.72,571.15c-.04-.34-.07-.69-.11-1.03-.46-4.55-.94-9.1-1.42-13.66-.08-.73-.2-.82-.98-.72-1.18.16-2.36.3-3.54.48-.51.08-.99.04-1.49-.1-3.51-1-7.02-2-10.53-3-3.62-1.03-7.25-2.07-11.1-3.16-.4-.11-.5-.07-.72.54-.34.94-.67,1.88-.99,2.82-1.03,2.96-2.06,5.92-3.09,8.88-.43,1.25-.87,2.5-1.28,3.76-.19.56-.11.68.48.87.54.18,1.1.35,1.65.52,1.6.51,3.2,1.03,4.8,1.51.46.14.69.34.7.82.01.46.1.93.16,1.39.16,1.28.31,2.55.48,3.82.08.55.2.63.76.59.19-.01.38-.04.56-.07,2.25-.3,4.49-.6,6.74-.9,5.87-.79,11.75-1.58,17.63-2.37.15-.02.29-.04.44-.06.86-.11.93-.17.85-.93ZM769.1,560.65c.85-2.43,1.69-4.86,2.54-7.29.23-.68.46-1.36.7-2.04.21-.57.22-.58.81-.42,1.71.48,3.41.96,5.12,1.45,2.47.7,4.94,1.41,7.41,2.11,2.19.62,4.39,1.24,6.58,1.86.15.04.34.05.41.25-.21.12-.46.1-.69.14-6.06.81-12.13,1.63-18.2,2.45-.11.01-.23.02-.35.04-.51.1-.59.19-.54.7.06.56.14,1.11.21,1.67.01.14.05.28-.06.44-1.23-.23-2.46-.54-3.7-.84-.33-.08-.33-.25-.24-.52ZM768.5,562.43c.03-.11.07-.22.1-.33.06-.25.2-.35.47-.28,1.23.31,2.46.61,3.7.91.39.09.56.3.55.68,0,.3.12.6.06.9-.2.07-.38-.02-.56-.07-1.35-.33-2.68-.75-4-1.17-.47-.15-.47-.16-.32-.64ZM771.77,567.57c-1.37-.41-2.74-.86-4.11-1.29-.44-.14-.44-.16-.3-.59.19-.57.4-1.14.58-1.71.09-.29.22-.41.57-.3,1.45.49,2.91.97,4.39,1.35.46.11.72.34.74.86.03.74.16,1.47.25,2.29-.82-.13-1.46-.41-2.12-.61ZM800.25,571.4c-8.04,1.08-16.07,2.16-24.1,3.24-.12.02-.24.04-.35.05-.2.03-.33-.03-.35-.25-.01-.13-.03-.27-.05-.41-.55-4.43-1.1-8.85-1.64-13.28-.11-.91-.23-.81.72-.94,6.57-.88,13.14-1.76,19.7-2.64,1.54-.2,3.07-.41,4.61-.61.62-.08.63-.08.69.53.43,4.13.86,8.26,1.29,12.4.05.53.11,1.06.17,1.6,0,.13-.07.22-.2.24-.16.03-.33.05-.49.07Z"/>
      <path class="cls-1" d="M781.27,566.96c-.08-.76-.14-1.53-.25-2.29-.09-.63-.2-.74-.83-.68-1.02.08-2.03.21-3.04.33-.37.04-.54.25-.52.61.02.51.03,1.02.04,1.53.02.4.17.77.32,1.14.15.38.41.57.83.5,1.01-.15,2.02-.3,3.02-.46.24-.04.39-.17.43-.46,0-.04.01-.13,0-.22ZM780.26,567.03c-.73.11-1.46.22-2.18.33-.25.04-.4-.06-.49-.3-.24-.61-.15-1.24-.18-1.86,0-.19.16-.2.3-.22.73-.1,1.46-.2,2.19-.29.17-.02.4-.06.42.14.09.67.14,1.34.2,2-.02.16-.14.18-.26.2Z"/>
      <path class="cls-1" d="M791.84,569.4c-.03.24-.2.33-.39.35-.8.09-1.6.18-2.4.25-.22.02-.46,0-.5-.27-.04-.27.18-.35.4-.38.8-.1,1.6-.2,2.4-.28.25-.03.49.03.5.34Z"/>
      <path class="cls-1" d="M780.19,570.38c.31.06.48.1.5.31.03.23-.11.36-.31.39-.8.11-1.59.21-2.39.3-.17.02-.34-.03-.39-.23-.04-.19.05-.35.22-.38.83-.15,1.67-.27,2.38-.38Z"/>
      <path class="cls-1" d="M794.31,569.5c-.27-.05-.42-.13-.44-.32-.03-.23.12-.33.34-.36.78-.08,1.56-.16,2.34-.23.2-.02.39.04.45.27.06.23-.1.37-.3.39-.82.1-1.65.17-2.39.25Z"/>
      <path class="cls-1" d="M786.29,570.01c-.09.32-.23.4-.4.42-.69.08-1.37.14-2.06.21-.21.02-.39-.06-.42-.29-.03-.23.14-.34.35-.36.68-.09,1.37-.18,2.06-.24.32-.03.51.17.48.27Z"/>
      <path class="cls-1" d="M774.25,553.2c1.75.51,3.49,1.04,5.36,1.55-1.16.01-4.75-1.02-5.36-1.55Z"/>
      <path class="cls-1" d="M794.73,565.88c1.09-.31,2.2-.53,3.35-.47-1.11.2-2.2.51-3.35.47Z"/>
      <path class="cls-1" d="M773.45,554.63q.57.06,1,.3-.5.04-1-.3Z"/>
      <path class="cls-1" d="M796.5,564.26c.24-.05.48-.09.87-.17-.33.27-.57.32-.87.17Z"/>
    </g>
    <g>
      <path class="cls-1" d="M794.13,504.44c-1.01-.25-1.99.3-2.22,1.23-.24.97.38,1.92,1.42,2.2,1,.27,2.01-.25,2.25-1.18.26-.97-.4-2-1.45-2.25ZM793.51,507.14c-.6-.15-.99-.72-.87-1.26.12-.53.67-.83,1.27-.71.64.14,1.07.72.94,1.28-.12.54-.72.85-1.34.69Z"/>
      <path class="cls-1" d="M793.51,506.62c-.25-.17-.41-.38-.32-.78.25.27.23.55.32.78Z"/>
    </g>
    <g>
      <path class="cls-1" d="M766.12,533.22c-.21-.15-.46-.26-.7-.36-1.12-.44-2.23-.88-3.36-1.3-2.85-1.08-5.7-2.15-8.55-3.22-1.23-.46-2.46-.92-3.7-1.38-.32-.12-.64-.24-.97-.35-.15.21-.3.42-.46.63.27.1.55.2.82.29,5.37,1.94,10.7,3.97,16.02,6.06.06.03.11.09.17.13-.09.23-.32.27-.5.36-1.45.7-2.94,1.3-4.51,1.73-1.19.33-2.34.76-3.46,1.28-.39.19-.66.14-1.03-.09-2.15-1.31-4.19-2.79-6.27-4.2-1.19-.8-2.4-1.59-3.62-2.34-.1-.06-.19-.12-.29-.17-.18.18-.36.37-.55.55.08.05.17.1.26.15.77.47,1.53.95,2.29,1.44,1.25.8,2.46,1.66,3.67,2.51,1.28.89,2.58,1.75,3.92,2.54.44.27.59.53.56,1.06-.08,1.83-.08,3.67-.11,5.51-.01.79-.21,1.54-.35,2.31h-.22c-.25-.9-.5-1.8-.73-2.71-.2-.77-.42-1.54-.66-2.29-.18-.56-.47-.94-1.03-1.27-.98-.58-1.87-1.33-2.77-2.04-2.2-1.73-4.38-3.48-6.58-5.22-.07-.05-.13-.1-.2-.15-.19.18-.38.35-.58.52.07.05.14.11.2.16,3.09,2.42,6.16,4.86,9.26,7.25-.02.23-.21.31-.35.42-2.48,1.99-4.97,3.99-7.46,5.98-.26.2-.53.39-.8.57-.19.13-.34.08-.5-.09-.23-.26-.38-.55-.53-.84-1.55-2.9-2.98-5.87-4.6-8.73-.06-.11-.12-.22-.19-.32-.2.17-.4.35-.6.5.07.12.13.24.2.36,1.58,2.88,3.14,5.77,4.6,8.71.16.32.35.61.62.86.43.39.8.46,1.3.18.37-.21.71-.45,1.04-.71,1.66-1.31,3.31-2.63,4.96-3.94.68-.53.54-.48,1.08.04.99.93,1.95,1.89,2.92,2.85.34.34.72.62,1.16.82.55.25.85.16,1.09-.37.09-.19.14-.39.18-.6.22-1.07.33-2.15.33-3.25.01-1.42.05-2.84.05-4.26,0-.57.26-.89.79-1.1.99-.38,1.96-.81,3-1.09,1.72-.48,3.37-1.12,4.96-1.91.28-.13.56-.27.8-.45.44-.32.43-.69-.03-1.02ZM754.04,545.64c-1.02-.97-2.05-1.94-3.12-2.97.67-.54,1.31-1.06,2.02-1.58.57,1.53.82,3.02,1.22,4.47-.04.03-.08.05-.12.08Z"/>
      <path class="cls-1" d="M747.74,528.05c2.76,1.16,5.49,2.4,8.31,3.4-2.74-1.2-5.45-2.43-8.25-3.47-.02.02-.04.05-.06.07Z"/>
      <path class="cls-1" d="M754.1,540.81c-.16-1.05-.3-2.12-.25-3.2.28,1.05.23,2.12.25,3.2Z"/>
      <path class="cls-1" d="M755.14,541.44c-.09-.82-.15-1.54-.07-2.33.24.5.27,1.53.07,2.33Z"/>
      <path class="cls-1" d="M746.75,532.82c.26.43.13.9.15,1.36-.24-.43-.19-.89-.15-1.36Z"/>
      <path class="cls-1" d="M758.24,532.36c.39,0,.68.22,1,.48-.49-.09-.57-.12-1-.48Z"/>
      <path class="cls-1" d="M748.02,534.39c-.03-.26-.07-.53-.1-.79.29.22.26.49.1.79Z"/>
    </g>
    <g>
      <path class="cls-1" d="M729.47,546.38h.11c-.03.08-.06.15-.09.22-.01-.07-.02-.15-.02-.22Z"/>
      <path class="cls-1" d="M729.72,545.34s.01.09.01.13h-.07s.04-.09.06-.13Z"/>
      <path class="cls-1" d="M731.37,546.29s.09,0,.14-.01c-.03.1-.08.21-.14.34-.01-.11-.01-.22,0-.33Z"/>
      <path class="cls-1" d="M731.59,545.21c.02.09.03.17.04.25-.03-.01-.07-.01-.11,0,.02-.08.05-.16.07-.25Z"/>
      <path class="cls-1" d="M733.28,546.23h.12c-.02.1-.06.19-.09.29-.01-.09-.03-.19-.03-.29Z"/>
      <path class="cls-1" d="M733.52,545.25c.01.06.01.14.01.2h-.15c.04-.07.08-.14.14-.2Z"/>
      <path class="cls-1" d="M735.13,546.09c.09-.01.19-.02.28-.03-.04.18-.11.34-.19.51-.06-.14-.1-.3-.09-.48Z"/>
      <path class="cls-1" d="M735.59,544.96c0,.17-.03.32-.05.47h-.23c.07-.15.16-.31.28-.47Z"/>
      <path class="cls-1" d="M735.59,544.96c0,.17-.03.32-.05.47-.03.23-.06.43-.13.63-.04.18-.11.34-.19.51-.06-.14-.1-.3-.09-.48.01-.2.06-.42.18-.66.07-.15.16-.31.28-.47Z"/>
      <path class="cls-1" d="M733.53,545.45c0,.27-.05.53-.13.78-.02.1-.06.19-.09.29-.01-.09-.03-.19-.03-.29-.03-.27-.02-.54.1-.78.04-.07.08-.14.14-.2.01.06.01.14.01.2Z"/>
      <path class="cls-1" d="M731.52,546.28h-.01c-.03.1-.08.21-.14.34-.01-.11-.01-.22,0-.33.01-.28.07-.55.15-.83.02-.08.05-.16.07-.25.02.09.03.17.04.25.04.29.02.48-.11.82Z"/>
      <path class="cls-1" d="M737.19,543.7c-.47-.45-1.02-.81-1.61-1.08-.63-.29-1.26-.58-1.9-.86-.42-.2-.86-.39-1.3-.58-.21.19-.41.38-.63.56l1.32.57c.59.26,1.17.51,1.76.77.7.31,1.38.66,1.91,1.26-.44.38-.95.33-1.44.34-1.62.02-3.24.03-4.85.04h-.17c-.22,0-.44.01-.66.02-.03.11-.06.22-.12.32-.05.15-.12.29-.2.42.1,0,.21,0,.32,0h.04s.04-.09.06-.13c0,.05.01.09.01.13.6-.01,1.19-.01,1.79-.01.02-.08.05-.16.07-.25.02.09.03.17.04.25.59-.01,1.17-.01,1.75-.01.04-.07.08-.14.14-.2.01.06.01.14.01.2.59,0,1.19,0,1.78-.02.07-.15.16-.31.28-.47,0,.17-.03.32-.05.47.31-.01.64-.04,1.03-.06-.21.49-.57.61-.95.66l-.21.03c-.04.18-.11.34-.19.51-.06-.14-.1-.3-.09-.48-.45.07-.91.12-1.36.13-.12,0-.25,0-.37.01-.02.1-.06.19-.09.29-.01-.09-.03-.19-.03-.29-.59.01-1.17.03-1.76.05h-.01c-.03.1-.08.21-.14.34-.01-.11-.01-.22,0-.33-.6.02-1.19.05-1.79.09-.03.08-.06.15-.09.22-.01-.07-.02-.15-.02-.22-.29.02-.59.03-.89.05-.12,0-.25.02-.38.02-.39.29-.79.56-1.2.82.24-.02.48-.04.72-.06.99-.07,1.99-.11,2.98-.13,1.6-.03,3.2-.07,4.79-.27.98-.13,1.62-.57,2.01-1.44.33-.75.3-1.1-.31-1.68Z"/>
      <path class="cls-1" d="M729.73,545.47c.04.36-.05.64-.15.91-.03.08-.06.15-.09.22-.01-.07-.02-.15-.02-.22-.02-.29.03-.59.19-.91.01-.04.04-.09.06-.13,0,.05.01.09.01.13Z"/>
    </g>
    <g>
      <path class="cls-1" d="M800.99,485.01c-.05.19-.17.29-.36.27-.19-.02-.29-.15-.29-.34,0-.18.2-.34.38-.3.19.04.27.18.27.37Z"/>
      <path class="cls-1" d="M808.36,474.46c-.04.61-.07,1.23-.12,1.84-.24,2.9-.37,5.8-.5,8.71-.11,2.23-.33,4.45-.61,6.66-.2,1.5-.24,3.01-.38,4.52-.02.25-.01.51-.15.83-.57-.21-1.1-.16-1.65.14-.1-.28-.07-.52-.05-.76.29-5.48.59-10.96.9-16.44.06-1.14.12-2.27.19-3.41-.27.24-.54.48-.81.73-.08,1.52-.17,3.05-.25,4.57-.21,3.73-.41,7.47-.61,11.21-.07,1.22-.14,2.45-.22,3.75q-.89-.32-1.8-.01c0-.97,0-1.92.01-2.87.04-4.73.07-9.46.11-14.19-.26.22-.51.44-.77.66-.05,5.49-.09,11-.13,16.59-.68-.48-1.21-.25-1.8.05-.02-.52-.07-.98-.06-1.43.03-2.36-.17-4.7-.23-7.06-.05-2.08-.08-4.15-.12-6.22-.25.2-.5.4-.76.6.1,3.5.13,6.99.29,10.49.08,1.54.16,3.08-.03,4.61-.03.22.05.41.14.6.65,1.34,1.17,2.72,1.62,4.13.25.77.59,1.49.95,2.21.15.29.34.57.58.81.41.4.75.43,1.19.06.33-.27.56-.62.77-.99.71-1.23,1.34-2.49,1.97-3.76.81-1.63,1.43-3.3,1.48-5.16.04-1.37.18-2.74.36-4.1.26-2.01.46-4.02.58-6.04.17-2.85.26-5.71.48-8.57.09-1.16.17-2.32.24-3.49-.27.24-.54.48-.81.73ZM804.29,502.83c-.38.68-.75,1.38-1.17,2.04-.33.52-.46.52-.77,0-.48-.82-.83-1.68-1.13-2.57-.1-.29,0-.44.27-.53.62-.19,1.25-.27,2-.13.11.04.31.12.5.21.56.3.61.42.3.98ZM806.39,498.45c-.43,1.05-.88,2.09-1.46,3.11-1.2-.82-2.42-.88-3.68-.43-.3.11-.42.01-.53-.25-.33-.79-.57-1.6-.97-2.35-.13-.23-.08-.4.09-.56.14-.12.27-.27.42-.37.39-.28.58-.25.92.13.14.16.26.34.4.5.38.44.65.41.89-.1.07-.14.12-.3.2-.44.33-.49.69-.49,1.09-.03.16.19.2.42.29.64.2.46.54.51.86.11.17-.22.29-.48.55-.63.2-.12.45-.23.66-.07.24.18.39.44.27.74Z"/>
      <path class="cls-1" d="M803.45,487.86c.05.79-.17,7.55-.26,7.92-.21-.03-.17-.2-.17-.31.07-1.58.13-3.15.22-4.72.05-.76.06-1.53.07-2.29,0-.18-.02-.37.13-.59Z"/>
      <path class="cls-1" d="M806.16,491.87c0,1.36,0,2.74-.35,4.08.02-1.36.07-2.73.35-4.08Z"/>
      <path class="cls-1" d="M800.41,495.99c-.31-1.19-.24-2.4-.28-3.61.27,1.19.24,2.4.28,3.61Z"/>
      <path class="cls-1" d="M799.99,488.87c.18.52.2,1.05.1,1.58-.28-.51-.18-1.05-.1-1.58Z"/>
      <path class="cls-1" d="M803.05,484.59c.2.41.21.73.15,1.23-.27-.47-.23-.8-.15-1.23Z"/>
    </g>
    <g>
      <path class="cls-1" d="M747.94,556.52c-.33-.07-.56-.46-.5-.83.06-.36.38-.57.72-.48.3.08.48.38.42.72-.06.38-.36.66-.65.6Z"/>
      <path class="cls-1" d="M751.21,554c-.1.42-.37.65-.67.56-.29-.08-.45-.44-.36-.82.07-.29.3-.46.56-.42.29.05.53.4.47.68Z"/>
      <path class="cls-1" d="M751.9,557.88c-.06.31-.27.48-.53.43-.32-.06-.53-.44-.45-.84.07-.36.29-.53.57-.46.3.07.49.46.4.87Z"/>
    </g>
    <path class="cls-1" d="M777.56,603.07c-.07.36-.38.61-.69.56-.36-.06-.61-.39-.54-.7.07-.33.54-.65.86-.59.28.05.44.37.37.74Z"/>
    <g>
      <path class="cls-1" d="M786.32,589.79c.08-.35.39-.54.75-.47.33.07.5.36.41.7-.11.43-.42.66-.75.56-.32-.1-.5-.43-.41-.79Z"/>
      <path class="cls-1" d="M784.34,588.2c-.05.3-.34.52-.6.47-.26-.05-.38-.29-.31-.61.06-.3.28-.48.53-.44.26.04.43.31.38.58Z"/>
      <path class="cls-1" d="M788.34,586.76c-.08.22-.27.28-.5.23-.25-.05-.37-.22-.34-.45.04-.25.22-.34.46-.3.23.03.42.31.37.53Z"/>
    </g>
    <g>
      <path class="cls-1" d="M784.28,528.83c-.07.34-.26.51-.51.45-.29-.07-.51-.42-.44-.72.06-.27.31-.44.58-.38.31.06.44.29.37.65Z"/>
      <path class="cls-1" d="M783.59,525.41c.09-.35.31-.5.61-.41.26.08.36.31.26.63-.08.29-.32.45-.57.39-.27-.06-.38-.29-.3-.61Z"/>
      <path class="cls-1" d="M786.52,526.34c.28.06.33.26.32.47,0,.2-.14.27-.33.26-.26-.02-.39-.17-.35-.41.03-.2.15-.33.36-.31Z"/>
    </g>
    <g>
      <path class="cls-1" d="M824.82,526.94c-.23-.05-.38-.15-.39-.37,0-.23.17-.3.37-.33,1.19-.18,2.39-.37,3.58-.55.09-.01.19-.03.28-.03.26-.01.5.04.53.34.03.26-.16.36-.39.4-1.26.19-2.53.37-3.79.55-.07,0-.14,0-.19,0Z"/>
      <path class="cls-1" d="M823.03,536.66c.05.02.13.04.19.08,1,.66,2.12,1.1,3.13,1.74.12.08.25.15.36.24.17.14.22.32.1.5-.14.2-.35.23-.56.1-.23-.13-.44-.29-.67-.42-.73-.41-1.47-.8-2.2-1.21-.25-.14-.48-.32-.7-.5-.15-.12-.15-.29-.05-.44.09-.14.24-.13.4-.1Z"/>
      <path class="cls-1" d="M809.72,514.26c-.01.08-.1.31-.4.29-.31-.03-.34-.27-.32-.53.08-1.04.15-2.07.23-3.11,0-.09.02-.18.03-.28.04-.21.11-.43.38-.42.3.02.4.22.38.49-.09,1.13-.18,2.26-.29,3.55Z"/>
      <path class="cls-1" d="M793.35,520.76c.83.24,1.65.48,2.48.71.23.07.42.17.37.43-.05.25-.28.3-.51.25-.35-.07-.7-.16-1.05-.25-.67-.18-1.33-.38-2-.57-.07-.02-.14-.04-.2-.07-.23-.1-.45-.23-.37-.52.09-.29.34-.27.59-.2.23.07.45.15.68.22,0,0,0,0,0,0Z"/>
      <path class="cls-1" d="M801.03,516.05c-.03.12-.08.22-.2.26-.15.06-.28.02-.38-.1-.05-.05-.09-.11-.12-.17-.44-.81-1-1.54-1.49-2.32-.16-.25-.4-.52-.07-.8.21-.17.42-.05.71.39.46.71.91,1.43,1.36,2.15.11.18.22.37.2.59Z"/>
      <path class="cls-1" d="M821.05,515.21c.23.05.41.36.17.67-.42.55-.8,1.13-1.21,1.7-.16.23-.34.44-.49.67-.12.18-.27.26-.48.14-.19-.11-.22-.29-.17-.49.02-.06.06-.12.1-.18.53-.76,1.06-1.52,1.6-2.27.11-.16.25-.27.47-.25Z"/>
      <path class="cls-1" d="M823.03,528.08c-.11-.26-.21-.52-.31-.79-.73-2-1.89-3.74-3.45-5.23-1.45-1.37-3.05-2.54-4.84-3.45-3.35-1.69-6.77-1.99-10.23-.5-1.06.45-2,1.08-2.89,1.75-1.86,1.4-3.1,3.23-3.71,5.44-.54,1.97-.67,3.98-.42,6.02.12.93.16,1.86.17,2.79.02,1.62-.35,3.13-1.15,4.54-.35.62-.78,1.12-1.46,1.45-.69.34-1.26.84-1.39,1.65-.04.25-.26.31-.43.42-.43.28-.77.64-.83,1.15-.04.34-.22.51-.51.66-.76.41-1.1,1.15-.82,1.88.21.59.43,1.19.8,1.72,1.34,1.94,3.21,3.24,5.34,4.19,1.42.64,2.83.03,3.35-1.39.11-.31.27-.5.58-.62.56-.23.92-.64,1.08-1.21.06-.18.09-.35.29-.45.88-.47,1.29-1.25,1.46-2.18.07-.38.26-.67.52-.95,1.56-1.68,3.52-2.69,5.74-3.31,1.97-.55,3.93-1.12,5.89-1.67.49-.13.94-.33,1.37-.58,1.87-1.09,3.24-2.67,4.45-4.39.8-1.13,1.38-2.37,1.71-3.88.27-.94.17-2.01-.31-3.06ZM801.78,547.47c-.12.04-.22.09-.3.16-.07.06-.12.13-.15.23-.03.06-.04.12-.05.2-.04.58-.37.93-.91,1.12-.22.08-.4.17-.54.31-.08.08-.15.18-.19.3-.04.08-.07.18-.09.29-.18.9-1.23,1.39-2.14,1.11-.46-.15-.89-.37-1.29-.62-1.24-.78-2.47-1.56-3.44-2.68-.56-.64-.94-1.36-1.17-2.16-.16-.55.01-1.01.57-1.16.13-.03.25-.08.34-.13.07-.03.12-.08.17-.12.13-.14.19-.34.18-.61-.03-.53.28-.9.77-1.06.38-.12.52-.32.53-.7.02-.51.36-.82.84-1.13.38.89.99,1.52,1.62,2.15,1.1,1.11,2.33,2.04,3.75,2.72.79.37,1.58.72,2.56.5-.21.62-.49,1.08-1.06,1.28ZM803.54,533.83c.26,0,.36.19.52.29.64.44,1.33.77,2.13.73.26-.02.4.05.49.3.16.46.38.91.65,1.33.13.2.09.33-.09.46-.73.49-1.29,1.15-1.96,1.71-1.83,1.53-3.28,3.37-4.57,5.34-.11.16-.21.31-.3.47-.15.25-.29.29-.57.14-1.03-.55-1.9-1.28-2.72-2.12,1.25-1.38,2.41-2.75,3.5-4.17,1.09-1.43,2.04-2.94,2.92-4.48ZM803.48,531.87c-.53-.74-.95-1.49-.72-2.41.05-.2.09-.45.33-.49.25-.04.45.12.61.31.2.23.25.51.25.79.01.63-.18,1.21-.47,1.8ZM807.23,533.8c.22-1.02.6-1.79,1.26-2.42.1-.1.22-.18.35-.23.28-.12.46,0,.45.32,0,.25-.09.5-.2.73-.36.73-.95,1.22-1.86,1.6ZM822.2,532.32c-1.08,2.6-2.84,4.67-5.16,6.29-.49.34-1.04.55-1.62.71-1.94.54-3.88,1.09-5.83,1.65-2.3.65-4.35,1.72-5.96,3.48-.13.14-.27.26-.4.39-.83.84-1.11.88-2.29.27.45-.83,1.01-1.6,1.56-2.36,1.42-1.96,3.23-3.55,5.07-5.11.35-.31.65-.32,1.1-.15,1.26.47,2.53.55,3.69-.26.39-.28.8-.57.68-1.12-.12-.57-.62-.74-1.13-.83-1.14-.2-2.18.1-3.16.62q-.7.38-1.06-.34c-.04-.08-.08-.17-.12-.26q-.28-.62.31-.93c.95-.5,1.69-1.18,2.06-2.19.02-.07.05-.13.07-.2.19-.65.02-1.2-.45-1.5-.41-.27-.92-.21-1.44.21-.88.71-1.35,1.65-1.59,2.72-.15.71-.41.87-1.11.59-.43-.16-.83-.38-1.17-.7-.24-.22-.29-.44-.15-.74.18-.4.32-.82.45-1.24.17-.54.22-1.09.12-1.66-.1-.59-.41-1.03-.97-1.31-.67-.35-1.21-.2-1.52.47-.29.63-.35,1.29-.13,1.97.18.59.46,1.14.78,1.66.22.36.22.67,0,1.04-.9,1.6-1.9,3.14-3.02,4.6-.89,1.16-1.85,2.29-2.77,3.42-.13.16-.25.34-.46.42-.26-.15-.42-.39-.59-.62-.43-.56-.42-.63.03-1.18,1.49-1.8,2.1-3.89,2.09-6.2,0-1.5-.29-2.98-.28-4.47.01-2.05.29-4.03,1.27-5.86,1.87-3.53,6.46-6.19,10.94-5.64,1.39.17,2.71.64,3.96,1.28,1.85.94,3.52,2.15,4.98,3.6,1.34,1.33,2.34,2.87,2.98,4.63.06.15.1.31.18.46.78,1.47.65,2.93.05,4.39ZM808.87,536.74c.94-.61,1.85-.82,2.86-.75.09,0,.19.03.27.07.22.1.32.23.09.41-.47.37-1,.64-1.62.62-.49-.02-.99-.08-1.6-.35Z"/>
      <path class="cls-1" d="M824.86,526.93c-.26-.05-.41-.16-.41-.38,0-.2.16-.27.33-.3,1.27-.19,2.53-.38,3.8-.57.11-.02.24-.01.35.01.15.04.23.16.25.31.02.16-.08.26-.22.32-.11.05-.23.06-.34.08-1.13.16-2.26.33-3.38.49-.14.02-.28.03-.37.04Z"/>
      <path class="cls-1" d="M826.83,539.12c-.06.22-.34.33-.58.17-1.03-.69-2.18-1.18-3.22-1.84-.23-.14-.55-.29-.41-.64.09-.23.33-.18.8.08.92.51,1.84,1,2.76,1.5.19.1.36.23.53.35.12.09.16.23.12.38Z"/>
      <path class="cls-1" d="M809.25,510.74c.03-.11.05-.22.09-.33.05-.12.16-.17.28-.18.16,0,.27.08.34.22.07.13.04.27.03.41-.09,1.04-.17,2.07-.26,3.11,0,.09-.01.19-.04.27-.05.17-.15.29-.35.27-.24-.02-.33-.17-.32-.38.03-.62.07-1.25.12-1.87.04-.51.08-1.01.12-1.52Z"/>
      <path class="cls-1" d="M794.85,521.94c-.71-.2-1.43-.4-2.14-.61-.11-.03-.23-.07-.34-.12-.21-.11-.37-.26-.26-.5.09-.21.3-.21.49-.15,1.1.32,2.21.64,3.31.96.18.05.31.18.27.36-.04.21-.21.3-.43.26-.31-.05-.61-.13-.91-.19,0,0,0,0,0-.01Z"/>
      <path class="cls-1" d="M801.01,516.02c-.02.14-.09.23-.21.28-.12.04-.23,0-.32-.08-.05-.05-.09-.11-.13-.17-.45-.83-1.02-1.59-1.53-2.38-.06-.1-.13-.2-.17-.31-.06-.17-.03-.32.13-.42.17-.1.32-.05.45.08.05.05.1.11.13.17.49.78.99,1.55,1.48,2.33.1.16.19.33.17.51Z"/>
      <path class="cls-1" d="M821.31,515.7c-.03.05-.09.16-.16.25-.54.76-1.09,1.51-1.62,2.27-.12.17-.25.29-.47.17-.19-.11-.22-.3-.15-.49.02-.06.06-.12.1-.18.52-.74,1.04-1.48,1.56-2.22.05-.07.12-.15.19-.2.12-.08.27-.1.4,0,.13.09.18.21.14.42Z"/>
      <path class="cls-1" d="M794.21,542.69c1.08,1.1,2.14,2.21,3.45,3.05,1.3.84,2.62,1.66,4.18,1.98-.07.22-.23.19-.36.17-.36-.06-.71-.13-1.04-.29-1.75-.86-3.46-1.77-4.86-3.15-.54-.53-1.06-1.06-1.36-1.77Z"/>
      <path class="cls-1" d="M820.21,531.51c-.12-2.51.51-3.06-2.03-6.56.46.13.68.43.89.72.79,1.1,1.28,2.3,1.4,3.63.05.55.05,1.11.05,1.67,0,.22,0,.47-.31.55Z"/>
      <path class="cls-1" d="M795.36,547.37c1.52.86,2.97,1.82,4.7,2.18-.06.31-.25.27-.4.24-.45-.07-.88-.2-1.3-.4-1.1-.53-2.12-1.18-3-2.03Z"/>
      <path class="cls-1" d="M793.65,545.92c-.54-.57-1.12-1.15-1.49-1.99.42.27,1.34,1.38,1.61,1.91.02.04-.01.07-.13.08Z"/>
      <path class="cls-1" d="M817.51,524.29c-.48-.12-.53-.15-.87-.64.6.15.64.18.87.64Z"/>
      <path class="cls-1" d="M800.18,549.11c-.62-.09-.78-.16-1.25-.53.44.08.79.22,1.25.53Z"/>
      <path class="cls-1" d="M797.3,550.43c.3.11.61.21,1,.35q-.61.05-1-.35Z"/>
      <path class="cls-1" d="M801.59,547.13c-.37.07-.66-.05-1.02-.17q.49-.12,1.02.17Z"/>
      <path class="cls-1" d="M792.35,546.46c-.29-.2-.45-.46-.45-.82.27.2.32.53.45.82Z"/>
      <path class="cls-1" d="M799.56,548.15c.36,0,.56.17.78.29-.26,0-.54.04-.78-.29Z"/>
      <path class="cls-1" d="M792.59,545.82c-.24-.16-.35-.27-.28-.49.19.09.21.25.28.49Z"/>
      <path class="cls-1" d="M804.75,519.91c.29.07.43.33.35.65-.08.3-.3.4-.66.31-.28-.07-.4-.23-.35-.5.05-.32.36-.53.66-.46Z"/>
      <path class="cls-1" d="M805.04,522.8c-.19-.07-.28-.19-.23-.37.05-.22.18-.4.43-.36.22.03.31.21.27.42-.05.23-.22.33-.47.32Z"/>
      <path class="cls-1" d="M807.13,519.95c.2.07.3.22.29.42-.02.23-.19.32-.4.27-.21-.06-.29-.24-.25-.44.04-.18.16-.26.36-.25Z"/>
    </g>
    <g>
      <path class="cls-1" d="M768.68,539.53c.31.06.54.36.49.66-.04.26-.28.39-.59.33-.32-.07-.52-.37-.44-.67.07-.25.26-.36.53-.31Z"/>
      <path class="cls-1" d="M765.41,540.47c-.05.18-.18.33-.4.25-.27-.09-.34-.32-.28-.57.04-.19.12-.37.36-.34.21.03.37.37.31.65Z"/>
      <path class="cls-1" d="M767,542.82c.23.08.27.25.23.45-.04.18-.18.28-.36.24-.22-.05-.3-.21-.26-.42.04-.22.18-.3.4-.27Z"/>
    </g>
    <g>
      <path class="cls-1" d="M769.72,515.46c-.68.12-1.35.17-2.01.17-.32.24-.64.47-.96.7,4.69.47,9.2-1.98,11.42-6.24.89-1.72,1.29-3.59,1.27-5.44-.27.29-.53.59-.79.87-.37,5.02-3.99,9.04-8.93,9.94Z"/>
      <path class="cls-1" d="M784.36,504.86c.04-1.76-.2-3.44-.68-5.02-.21.24-.41.48-.62.73.18.67.33,1.36.42,2.07,1.08,8.68-5.28,16.74-14.13,17.91-2.7.35-5.31,0-7.65-.88-.27.16-.55.32-.82.48.82.34,1.67.62,2.55.83,3.17.74,6.28.56,9.33-.45.23-.08.46-.21.73-.21.28.63.34,1.25.37,1.88.03.81.03,1.63.09,2.44.06.78.43,1.19,1.2,1.41.28.08.56.07.85.06,1.48-.08,2.67-.66,3.65-1.76,1.12-1.25,1.56-2.66,1.33-4.3-.18-1.25-.42-2.49-.8-3.71-.13-.44-.04-.71.24-1.05,2.51-3.03,3.85-6.49,3.95-10.42ZM778.55,523.88c-.08.51-.35.83-.82,1.05-.64.29-1.31.41-2.01.42-.71.01-1-.26-1.05-.96-.04-.67-.07-1.34-.09-2.02-.02-.68-.1-1.34-.32-2-.06-.19-.13-.39.15-.52,1.12-.5,2.17-1.13,3.18-1.88.61,1.28.93,2.57,1.03,3.9.05.67.04,1.34-.07,2.01ZM780.16,519.83c.02.09.03.19.05.29.01.05.01.09.02.14.05.3.06.59.04.87,0,.06,0,.13-.01.19-.03.28-.08.55-.16.82-.02.06-.04.13-.06.2-.1.27-.22.54-.36.8-.05.08-.1.16-.25.17-.02-.34-.03-.68-.04-1.02v-.18c-.01-.29-.02-.57-.06-.86,0-.05-.01-.09-.02-.14-.01-.09-.02-.17-.04-.26-.05-.27-.11-.54-.17-.81-.01-.06-.03-.11-.05-.17-.07-.35-.16-.7-.28-1.05-.01-.03-.02-.06-.04-.09-.06-.17-.12-.34-.2-.51-.11-.25-.17-.48-.14-.69.01-.08.03-.16.08-.24.07-.14.19-.26.37-.37s.31-.27.54-.48c.12.29.21.58.27.87.03.08.05.17.07.26.08.37.15.74.23,1.11h0c.02.09.04.16.05.24.06.3.12.6.16.91Z"/>
      <path class="cls-1" d="M782.22,501.55c-.06.07-.11.13-.17.2.4,1.76.48,3.57.07,5.47.28-.06.29-.24.32-.39.22-1.24.34-2.49.12-3.73-.09-.52-.21-1.04-.34-1.55Z"/>
      <path class="cls-1" d="M780.16,517.4c-.37.28-1.36.29-2.18.02.31-.2,1.4-.21,2.18-.02Z"/>
      <path class="cls-1" d="M778.74,519.95c.61-.19,1.56-.17,2.03,0-.46.24-1.18.25-2.03,0Z"/>
      <path class="cls-1" d="M778.58,518.75c.64-.09,1.27-.18,1.9.08-.63.14-1.27.21-1.9-.08Z"/>
      <path class="cls-1" d="M779.03,521.14c.56-.11,1.1-.07,1.65.06-.55.23-1.1.18-1.65-.06Z"/>
      <path class="cls-1" d="M780.39,522.24c-.39.2-.78.14-1.28-.02.49-.24.89-.13,1.28.02Z"/>
      <path class="cls-1" d="M780.76,510.67c-.05.26-.2.36-.41.32-.18-.03-.28-.17-.26-.36.03-.22.18-.32.4-.27.17.04.29.15.28.31Z"/>
    </g>
    <g>
      <path class="cls-1" d="M809.36,555.79c.24-.08.46-.22.69-.34.8-.4,1.53-.89,2.32-1.39.17.36.11.69.08,1-.03.28-.07.56-.1.84t0,.01s-.02.1-.02.15c.28-.28.54-.57.83-.84,0-.06,0-.11.01-.17.03-.42.03-.85-.05-1.27-.13-.63-.46-.78-1.01-.44-.65.39-1.23.86-1.9,1.22-.14.08-.27.2-.52.14.95-2.96,1.9-5.91,2.89-9.01,1.34,2.1,2.63,4.14,3.91,6.15.09.15.18.29.28.44.21-.14.43-.27.64-.41-.12-.18-.23-.37-.35-.55-1.32-2.09-2.65-4.18-3.98-6.27-.16-.24-.27-.61-.66-.58-.4.03-.39.42-.48.69-1.04,3.22-2.07,6.45-3.11,9.67-.04.13-.09.27-.12.4-.06.43.23.7.65.56Z"/>
      <path class="cls-1" d="M814.76,550.39c.1.12.16.25.04.37-.16.15-.36.11-.51-.04-.12-.11-.1-.26.02-.37.15-.14.31-.05.46.04Z"/>
      <path class="cls-1" d="M813.35,549.48c-.15.13-.28.15-.37.06-.14-.14-.09-.3,0-.44.09-.14.21-.08.3,0,.14.13.14.28.07.38Z"/>
    </g>
  </g>
  <g>
    <g>
      <path class="cls-1" d="M922.35,471.48c-.04.24-.13.36-.32.39-.16.02-.28-.07-.35-.2-.07-.14-.13-.3-.17-.46-.26-.98-.65-1.91-1.25-2.75-.08-.11-.16-.24-.2-.37-.07-.19-.03-.38.18-.47.18-.08.32,0,.43.16.12.17.25.35.37.52.56.83.95,1.74,1.22,2.69.05.18.07.36.1.49Z"/>
      <path class="cls-1" d="M923.48,478.51c-.06.29-.16.5-.47.46-.27-.04-.32-.26-.32-.48,0-.37.02-.74.02-1.11,0-.76-.01-1.53-.17-2.29-.02-.09-.05-.18-.04-.27,0-.17.07-.32.26-.36.2-.04.32.07.4.22.03.06.05.13.07.2.29,1.21.24,2.44.24,3.63Z"/>
      <path class="cls-1" d="M923.13,482.06c.17.05.28.16.29.35.02.33.07.65.06.98-.03.84,0,1.68.19,2.5.02.09.03.19.03.28-.01.17-.07.32-.26.36-.23.05-.36-.09-.44-.27-.06-.13-.08-.27-.11-.41-.14-.64-.19-1.3-.16-1.95.02-.44-.02-.88-.03-1.33,0-.35.18-.55.44-.52Z"/>
      <path class="cls-1" d="M926.41,493.48c-.16-.06-.29-.17-.39-.3-.73-.91-1.32-1.9-1.82-2.95-.09-.18-.14-.37.07-.49.23-.13.41-.02.55.16.08.11.16.24.22.36.41.88.97,1.67,1.57,2.44.09.11.18.23.21.36.07.25-.16.47-.41.41Z"/>
      <path class="cls-1" d="M922.32,471.52c-.04.2-.12.3-.28.33-.16.03-.28-.06-.36-.19-.07-.12-.11-.26-.15-.39-.26-1.01-.66-1.96-1.27-2.82-.08-.11-.16-.24-.2-.37-.05-.16-.02-.33.16-.42.19-.1.32,0,.43.14.8,1.06,1.35,2.22,1.65,3.49.02.09.01.18.02.23Z"/>
      <path class="cls-1" d="M923.45,478.57c-.04.2-.13.39-.39.39-.28,0-.34-.22-.34-.45,0-.3.02-.6.02-.9,0-.86,0-1.72-.18-2.57-.05-.24-.1-.5.24-.54.31-.04.39.21.45.44.11.46.16.92.19,1.38.05.74.06,1.48.02,2.25Z"/>
      <path class="cls-1" d="M923.7,486.16c-.04.21-.1.32-.27.35-.16.02-.29-.04-.36-.17-.07-.12-.11-.26-.14-.39-.1-.48-.17-.96-.18-1.45-.01-.62.03-1.25-.03-1.87-.03-.36.15-.57.39-.53.33.05.29.3.31.54.02.42.06.83.05,1.25-.02.6.03,1.2.16,1.8.04.18.06.36.07.49Z"/>
      <path class="cls-1" d="M926.81,493.18c-.04.23-.2.31-.42.26-.17-.04-.29-.16-.39-.3-.7-.9-1.3-1.87-1.78-2.9-.08-.18-.15-.37.06-.5.24-.14.41,0,.54.18.07.1.13.2.18.31.42.9,1,1.71,1.61,2.5.1.13.22.25.2.44Z"/>
    </g>
    <g>
      <path class="cls-1" d="M880.97,477.09c-.62-1.79-1.95-2.84-3.82-3.32-.25-.04-.51-.08-.77-.1-3.32-.27-5.64,2.82-4.35,5.81.99,2.31,3.76,3.6,6.19,2.87,2.31-.7,3.53-3,2.75-5.26ZM879.74,480.42c-.85,1.11-2.06,1.49-3.47,1.35-.16-.02-.33-.07-.49-.1-1.45-.37-2.5-1.19-3.07-2.55-.82-1.95.23-4.01,2.29-4.57,1.98-.54,4.25.51,5.09,2.37.55,1.24.48,2.44-.35,3.5Z"/>
      <path class="cls-1" d="M878.53,477.01c-.06-.26-.21-.48-.41-.65-.19-.17-.25-.33-.14-.56.05-.09.11-.21-.02-.29-.11-.03-.13.05-.16.11-.09.17-.1.46-.41.36-.37-.12,0-.35-.05-.51,0-.02-.04-.04-.15-.15-.13.49-.44.7-.87.82-.37.11-.62.42-.82.75-.27.46-.19.74.31,1.02.15.09.31.14.24.35-.16.44-.23.92-.51,1.32-.42-.26-.53-.76-.98-.97-.17.47.09.77.33,1.05.3.33.58.64.26,1.09-.05.08-.07.22.12.32.15-.14.18-.34.24-.53.07-.25.26-.21.46-.18.19.04.32.1.26.33-.03.1-.05.22.12.3.18-.18.14-.51.57-.58,1.26-.19,1.6-1.36.71-2.28-.22-.24-.25-.43-.16-.69.08-.23.18-.45.27-.67.26.09.32.28.43.43.07.1.14.22.27.17.17-.06.12-.23.09-.36ZM876.98,476.57c.07-.11.18-.15.3-.12.21.06.14.21.11.33-.01.05-.02.09-.03.14,0,0,.01,0,.02.01-.09.21-.17.42-.26.63-.05.09-.14.1-.24.06-.11-.04-.25-.08-.21-.23.07-.28.15-.57.31-.82ZM875.97,477.4c-.19-.09-.09-.23-.02-.34.16-.25.34-.47.69-.55.04.33-.17.54-.25.79-.07.19-.26.18-.42.1ZM876.8,478.78c-.08.28-.17.57-.26.86-.08.28-.3.26-.51.19-.23-.06-.18-.23-.13-.39l.33-.99c.05-.17.09-.39.36-.3.24.08.33.25.26.5-.01.04-.02.09-.03.13h-.02ZM876.84,479.86c.02-.46.12-.84.36-1.28.42.73.37.91-.36,1.28Z"/>
    </g>
    <g>
      <path class="cls-1" d="M904.81,470.56c-2.03-.45-4.08.83-4.46,2.78-.38,1.89.85,3.7,2.78,4.15,1.99.45,4.01-.81,4.42-2.75.39-1.88-.84-3.76-2.74-4.18ZM906.8,474.54c-.31,1.55-1.89,2.55-3.48,2.21-1.53-.32-2.49-1.72-2.2-3.21.31-1.58,1.84-2.58,3.44-2.25,1.56.32,2.55,1.76,2.24,3.25Z"/>
      <path class="cls-1" d="M905.77,474.41c.05-.93-.51-1.35-1.45-1.18-.39.07-.62-.08-.61-.47.01-.24-.09-.4-.3-.34-.33.09-.54-.08-.81-.25-.1.28.24.42.02.66-.37.4-.28.91-.18,1.38.15.66.62.86,1.23.53.18-.11.28-.13.41.03.13.15.34.25.37.43-.2.29-.6.13-.74.42.15.15.32.16.48.18.35.03.62-.39,1.01-.17,0,0,.07-.06.07-.09-.13-.67.36-.51.76-.49-.07-.24-.28-.36-.26-.64ZM903.33,474.23s-.14.09-.17.07c-.24-.13-.2-.33-.13-.55.2.13.39.22.3.48ZM903.69,473.71c-.12.11-.22.05-.29-.05-.13-.15-.38-.24-.27-.5.01-.03.07-.07.11-.06.15,0,.52.37.52.5-.02.04-.04.08-.07.11ZM904.93,474.82c-.09.09-.2.16-.31.06-.18-.15-.36-.32-.5-.5-.09-.13.09-.36.25-.34.22.16.47.31.64.54.07.09-.01.17-.08.24ZM904.77,473.82c.21-.03.34.04.39.32-.23-.07-.35-.15-.39-.32Z"/>
    </g>
    <g>
      <path class="cls-1" d="M841.99,500.98c-1.95-.45-3.89.72-4.29,2.58-.4,1.83.78,3.59,2.69,4.02,1.96.43,3.87-.74,4.26-2.62.38-1.81-.78-3.55-2.66-3.98ZM843.91,504.8c-.32,1.47-1.84,2.39-3.37,2.05-1.44-.32-2.39-1.69-2.11-3.07.29-1.46,1.83-2.41,3.35-2.08,1.49.33,2.43,1.69,2.13,3.1Z"/>
      <path class="cls-1" d="M839.68,503.25c-.1.89.16,1.61,1.09,2.18-1.23-.36-1.66-1.25-1.09-2.18Z"/>
    </g>
    <g>
      <path class="cls-1" d="M952.52,406.73c-.24-.1-.49-.18-.76-.24-1.18-.26-2.37.06-3.27.77-.71.54-1.24,1.34-1.43,2.27-.44,2.09.85,4.07,2.97,4.55,2.16.49,4.31-.88,4.76-3.03.39-1.85-.58-3.6-2.27-4.32ZM954.05,410.88c-.37,1.74-2.09,2.85-3.85,2.47-1.67-.35-2.74-1.96-2.41-3.61.36-1.77,2.09-2.88,3.89-2.49,1.67.35,2.72,1.96,2.37,3.63Z"/>
      <path class="cls-1" d="M951.75,409.74c-.59-.23-.59-.24-.6-.87.22-.08.42.04.63.08.12.02.26.02.29-.11.03-.12-.07-.21-.18-.27-.15-.07-.31-.15-.47-.18-.29-.05-.51-.18-.61-.47-.21.12-.14.43-.4.4-.16-.07,0-.36-.31-.33,0,.38-.2.66-.52.89-.1.08-.17.21-.23.33-.38.71-.2,1.13.59,1.36.21.06.28.15.27.34-.01.15.07.32-.02.46-.08.08-.18.06-.28.05-.17-.02-.38-.04-.41.16-.03.19.18.27.34.29.39.04.54.25.55.61,0,.05.08.1.12.16.05-.04.1-.06.11-.09.18-.59.24-.63.85-.4.13.05.24.09.25-.07.02-.23.18-.32.34-.4.81-.42.57-1.6-.31-1.94ZM950.13,409.89c-.03.15-.12.25-.29.22-.14-.02-.19-.13-.19-.25-.02-.29.1-.52.4-.73.09.31.12.53.08.76ZM950.44,408.93c.01-.05.11-.07.16-.1.05.02.12.03.13.06.09.26.22.53.08.79-.05.09-.25.14-.3.05-.14-.25-.14-.53-.07-.8ZM951.05,411.52c-.15,0-.37.06-.44-.12-.13-.32-.13-.67-.08-1.01.02-.17.22-.21.39-.2.04.03.1.05.11.08.12.35.18.71.2,1.08.01.1-.07.16-.18.17ZM951.6,411.31c-.07-.39-.14-.72-.21-1.08.41-.03.55.2.64.47.09.31-.06.48-.43.61Z"/>
      <path class="cls-1" d="M948.65,411.78c-.52-.79-.66-1.6-.13-2.42-.07.81-.18,1.61.13,2.42Z"/>
    </g>
    <g>
      <path class="cls-1" d="M988.84,409.42c-.31-.37-.65-.7-1.04-.98-1.69-1.23-3.58-2.03-5.62-2.45-.69-.14-1.38-.22-2.07-.11-.66.12-1.15.42-1.37,1.07-.11.33-.24.65-.35.98-.3.86.02,1.58.68,2.14,1.63,1.37,3.49,2.33,5.59,2.83.73.16,1.47.23,2.21.27.93.05,1.7-.21,2.05-1.14.1-.24.21-.47.29-.71.24-.69.11-1.33-.37-1.9ZM987.06,412.41c-.12,0-.25-.01-.37-.01-.04,0-.08-.01-.11-.01-.46-.02-.92-.06-1.37-.13-.06,0-.12-.02-.18-.03-.39-.07-.78-.17-1.16-.31-.12-.04-.24-.09-.36-.14-.05-.01-.09-.03-.13-.05-.47-.18-.93-.38-1.38-.6-.02,0-.04-.02-.06-.03-.44-.22-.86-.45-1.27-.71-.03-.02-.06-.04-.08-.05-.32-.22-.64-.44-.94-.69-.07-.05-.13-.11-.18-.16-.02-.02-.04-.04-.06-.06-.41-.42-.48-.81-.24-1.43.17.16.35.31.52.47.04.02.08.06.12.09.37.31.75.59,1.13.86.04.02.08.05.12.08.38.25.77.48,1.17.7.06.03.11.05.17.08.44.23.89.42,1.35.6.02.01.04.02.07.02.5.19,1.02.35,1.56.47.05,0,.1.03.15.04.43.09.88.16,1.33.21.07.02.14.02.21.02.38.05.76.07,1.15.08-.16.6-.64.7-1.16.69ZM987.95,410.89c-.4.07-.81.07-1.22,0-.3-.05-.6-.13-.91-.2-1.77-.39-3.41-1.1-4.88-2.17-.43-.31-.82-.65-1.1-1.1-.26-.43-.17-.65.31-.77.32-.09.66-.1.99-.06,2.51.32,4.76,1.24,6.7,2.87.18.15.34.33.48.52.38.54.27.8-.37.91Z"/>
      <path class="cls-1" d="M985.29,408.91c-.17-.13-.37-.22-.55-.34-.08-.05-.11-.14-.08-.24.04-.11.13-.12.23-.11.16.02.3.15.59.08-.37-.3-.74-.46-1.11-.6-.44-.16-.91-.27-1.39-.25-.19.01-.4.03-.45.26-.05.22.09.35.26.46.05.04.13.06.19.09.13.09.35.13.21.36-.1.17-.25.16-.43.08-.34-.15-.69-.29-1.12-.46.31.57,1.06.48,1.24,1.04,0,0,.05,0,.07-.01.36-.2.67.05.91.22.38.29.79.24,1.19.27.24.03.48-.08.55-.35.07-.25-.13-.38-.31-.5ZM982.8,407.73c.36-.09.66-.05.97.12-.37.37-.43.36-.97-.12ZM984.16,408.94c-.05.2-.19.25-.38.17-.15-.06-.41-.08-.33-.34.07-.2.25-.24.47-.18.19.05.3.14.24.35ZM984.07,408.31s-.14-.04-.09-.13c.07-.11.15-.23.31-.2.11.02.14.1.11.2-.06.16-.16.2-.33.13ZM984.52,409.41c-.18-.04-.21-.16-.16-.31.05-.2.17-.28.36-.18.19.11.45.17.52.43-.22.23-.48.11-.72.06Z"/>
      <path class="cls-1" d="M985.49,411.17c.15.53-.13.9-.5,1.41.02-.63.3-1.01.5-1.41Z"/>
      <path class="cls-1" d="M980.57,410.57c0-.53.19-.99.56-1.38-.09.49-.26.95-.56,1.38Z"/>
      <path class="cls-1" d="M983.25,412.02c.19-.42.37-.84.56-1.27.08.61,0,.8-.56,1.27Z"/>
      <path class="cls-1" d="M986.64,410.62q.45-.64.46-1.26c.44.46.35.76-.46,1.26Z"/>
      <path class="cls-1" d="M982.48,409.84c-.06.62-.23,1.03-.55,1.38.06-.46.18-.88.55-1.38Z"/>
      <path class="cls-1" d="M986.53,412.58c.1-.52.3-.83.49-1.28.13.57.09.66-.49,1.28Z"/>
      <path class="cls-1" d="M979.41,409.63c-.03-.51.09-.99.44-1.39,0,.5-.22.95-.44,1.39Z"/>
    </g>
    <g>
      <path class="cls-1" d="M957.53,422.44c-1.02-.25-2,.3-2.23,1.23-.23.97.38,1.92,1.43,2.2,1,.27,2-.25,2.25-1.18.26-.97-.41-2-1.45-2.25ZM956.91,425.14c-.6-.15-.99-.72-.87-1.26.12-.53.67-.83,1.26-.71.65.14,1.08.72.95,1.28-.12.54-.72.85-1.34.69Z"/>
      <path class="cls-1" d="M956.91,424.62c-.25-.17-.41-.38-.32-.78.25.27.23.55.32.78Z"/>
    </g>
    <g>
      <path class="cls-1" d="M929.52,451.22c-.22-.15-.46-.26-.7-.36-1.12-.44-2.24-.88-3.36-1.3-2.85-1.08-5.7-2.15-8.56-3.22-2.31-.86-4.62-1.74-6.95-2.57-1.92-.68-3.9-1.22-5.84-1.82-3.31-1.03-6.69-1.76-9.98-2.85-.32-.07-.65-.15-.98-.21-.39-.06-.76-.06-1.12.11-.58.28-.74.67-.45,1.26.37.76.76,1.51,1.2,2.24.97,1.6,1.97,3.19,2.86,4.83,3.21,5.95,6.62,11.79,9.63,17.84.16.32.35.61.62.86.43.39.79.46,1.3.18.36-.21.71-.45,1.04-.71,1.66-1.31,3.31-2.63,4.96-3.94.67-.53.54-.48,1.08.04.99.93,1.95,1.89,2.91,2.85.35.34.72.62,1.17.82.54.25.85.16,1.09-.37.08-.19.13-.39.18-.6.22-1.07.33-2.15.33-3.25.01-1.42.05-2.84.05-4.26,0-.57.26-.89.79-1.1.99-.38,1.96-.81,3-1.09,1.72-.48,3.37-1.12,4.96-1.91.28-.13.56-.27.8-.45.44-.32.43-.69-.03-1.02ZM907.69,465.01c-.26.2-.53.39-.81.57-.18.13-.34.08-.49-.09-.23-.26-.38-.55-.54-.84-1.64-3.08-3.15-6.24-4.9-9.27-1.8-3.12-3.46-6.3-5.22-9.43-.75-1.32-1.58-2.59-2.37-3.88-.18-.31-.36-.61-.53-.92,7.76,5.59,15.12,11.64,22.67,17.46-.02.23-.21.31-.35.42-2.49,1.99-4.97,3.99-7.46,5.98ZM917.43,463.64c-1.02-.97-2.04-1.94-3.12-2.97.68-.54,1.31-1.06,2.03-1.58.57,1.53.82,3.02,1.22,4.47-.04.03-.08.05-.13.08ZM919.15,462.05c-.01.79-.21,1.54-.35,2.31h-.23c-.24-.9-.5-1.8-.73-2.71-.19-.77-.41-1.54-.65-2.29-.18-.56-.47-.94-1.03-1.27-.98-.58-1.87-1.33-2.77-2.04-4.05-3.2-8.08-6.43-12.15-9.6-2.37-1.86-4.81-3.64-7.21-5.45-.2-.15-.44-.27-.59-.57.54.12.95.38,1.36.6,5.54,2.96,11.04,5.99,16.31,9.4,1.24.8,2.46,1.66,3.67,2.51,1.28.89,2.57,1.75,3.91,2.54.44.26.6.53.57,1.06-.09,1.83-.08,3.67-.11,5.51ZM928.28,452.08c-1.45.7-2.94,1.3-4.5,1.73-1.19.33-2.35.76-3.46,1.28-.4.19-.67.14-1.04-.09-2.15-1.32-4.18-2.79-6.26-4.2-3.8-2.56-7.74-4.88-11.75-7.1-2.12-1.17-4.23-2.35-6.4-3.44-.12-.06-.27-.1-.31-.23,4.88,1.38,9.84,2.59,14.64,4.28,6.52,2.29,12.98,4.75,19.41,7.28.07.03.12.09.18.13-.09.23-.32.27-.51.36Z"/>
      <path class="cls-1" d="M909.53,445.39c3.39,1.12,6.63,2.63,9.91,4.07-3.37-1.19-6.59-2.73-9.91-4.07Z"/>
      <path class="cls-1" d="M917.5,458.81c-.16-1.05-.3-2.12-.25-3.2.28,1.05.23,2.12.25,3.2Z"/>
      <path class="cls-1" d="M918.54,459.44c-.09-.82-.15-1.54-.07-2.33.24.5.27,1.53.07,2.33Z"/>
      <path class="cls-1" d="M910.14,450.82c.26.43.13.9.15,1.36-.24-.43-.19-.89-.15-1.36Z"/>
      <path class="cls-1" d="M921.63,450.36c.39,0,.68.22,1,.48-.49-.09-.57-.12-1-.48Z"/>
      <path class="cls-1" d="M911.42,452.39c-.03-.26-.07-.53-.1-.79.29.22.26.49.1.79Z"/>
    </g>
    <g>
      <path class="cls-1" d="M900.58,461.7c-.46-.45-1.01-.81-1.6-1.08-1.2-.55-2.4-1.1-3.61-1.62-3.15-1.35-6.32-2.68-9.48-4.03-1.95-.83-3.76-2.01-5.92-2.46,1-.6,1.34-1.53,1.54-2.53.76-3.85,1.54-7.7,2.14-11.58.46-2.96.86-5.93,1.21-8.91.09-.86-.06-1.62-.63-2.3-.31-.37-.7-.65-1.11-.9-.8-.49-1.69-.66-2.6-.79-2.59-.37-5.19-.57-7.8-.65-3.33-.1-6.65-.14-9.98-.18-.8-.01-1.59-.03-2.39-.05-.45-.02-.9-.02-1.35-.04-.14.25-.29.49-.44.73.35,0,.69.02,1.04.02,2.83.08,5.66.16,8.49.16,3.28,0,6.56.14,9.83.44,1.24.11,2.48.25,3.7.54.89.22,1.65.64,2.18,1.4.23.32.36.66.32,1.05-.13,1.23-.21,2.46-.39,3.68-.55,3.75-.97,7.52-1.73,11.23-.29,1.41-.58,2.83-.87,4.24-.14.65-.32,1.31-.42,1.97-.28,1.78-1.72,2.22-2.95,2.27-.65.03-1.29,0-1.94,0-3.8-.01-7.6.22-11.39.38-2.7.11-5.4.15-8.1.12-2.37-.03-4.73.18-7.1.09-3.74-.15-7.45.22-11.17.43-.4.02-.82.11-1.21-.04-.72-.27-1.19-.77-1.28-1.56-.13-1.05-.11-2.09-.04-3.14,0-.08.01-.15.01-.23.03-.38.05-.77.08-1.16-.28.34-.56.67-.84,1.01-.02.3-.04.6-.05.9-.03.77-.03,1.55.04,2.32.1,1.01.5,1.8,1.41,2.32.17.09.28.19.17.38-.24.42-.19.9-.26,1.36-.11.63.14,1.08.69,1.41,1.31.76,2.61,1.53,3.92,2.27,1.05.59,2.23.88,3.31,1.4.8.39,1.59.79,2.44,1.07,1,.34,2.01.65,2.99,1.03,3.58,1.34,7.08,2.85,10.68,4.13,1.11.4,2.17.85,3.38.75,2.12-.16,4.25-.19,6.36-.45,1.42-.17,2.85-.28,4.28-.38,3.33-.22,6.67-.43,9.98-.83,3.32-.41,6.64-.73,9.99-.8,1.6-.03,3.2-.07,4.79-.27.98-.13,1.62-.57,2.01-1.44.33-.75.3-1.1-.32-1.68ZM899.02,464.03l-.21.03c-.1,0-.2.02-.29.03-.45.07-.9.12-1.35.13-.12,0-.25,0-.37.01h-.12c-.59.01-1.18.03-1.77.05-.05.01-.1.01-.14.01-.6.02-1.19.05-1.79.09h-.11c-.62.03-1.24.07-1.86.11-.02,0-.04.01-.07.01-.68.04-1.35.09-2.03.15h0c-.75.06-1.49.13-2.24.2h-.05c-.62.06-1.23.13-1.85.19-.04,0-.08.01-.12.02-.72.07-1.43.15-2.15.24-.07,0-.13.01-.2.02-.2.02-.41.05-.61.07-.36.04-.72.08-1.08.11-.01,0-.02,0-.03,0-.67.07-1.34.13-2.01.17-.02.01-.04.01-.06,0-.53.05-1.06.08-1.59.11-.02,0-.03.01-.05,0-.73.05-1.46.09-2.19.14-.06,0-.11.01-.17.01-.15,0-.31.02-.46.03-1.12.08-2.24.17-3.36.29h-.04c-.32.03-.63.07-.95.1-.23.03-.47.05-.7.07-.03.01-.06.01-.09.01-.73.07-1.46.14-2.2.19-.05,0-.11.01-.17.01-.73.05-1.47.1-2.21.14,0,0-.01,0-.02.01-.39.02-.78.04-1.17.06-.42.02-.82-.03-1.2-.16-.04,0-.08-.01-.11-.03-.17-.05-.33-.11-.5-.19-.44-.22-.92-.38-1.39-.54-.06-.02-.11-.04-.17-.06-.02-.01-.03-.01-.05-.02-.7-.25-1.4-.51-2.1-.77-.04-.02-.08-.03-.12-.05-.61-.23-1.21-.46-1.81-.7-.01-.01-.02-.01-.03-.02-.68-.26-1.37-.54-2.05-.81-.04-.02-.08-.04-.12-.05-.59-.24-1.17-.47-1.76-.7-.04-.02-.08-.03-.11-.05-.54-.21-1.09-.42-1.63-.63-.02,0-.04-.02-.06-.02-.06-.03-.12-.05-.18-.07-.47-.19-.95-.37-1.43-.52-.04-.01-.09-.03-.14-.04-.12-.04-.25-.08-.37-.11-.4-.11-.79-.24-1.17-.39-.04-.02-.08-.03-.13-.05-.41-.17-.83-.35-1.24-.54-.05-.02-.1-.04-.15-.07-.4-.18-.8-.37-1.21-.55-.06-.03-.12-.05-.18-.08-.32-.14-.64-.27-.97-.39-.13-.05-.25-.1-.38-.15-.05-.02-.11-.04-.16-.06h0c-.37-.15-.73-.31-1.08-.49-.06-.03-.12-.06-.18-.09-.36-.18-.7-.38-1.04-.6h0c-.08-.05-.16-.1-.24-.15h-.01c-.28-.19-.58-.35-.88-.51-.05-.02-.1-.05-.15-.08-.33-.17-.65-.33-.97-.52-.04-.02-.09-.04-.13-.07h-.01c-.87-.52-.91-.68-.58-1.71.04,0,.1,0,.13.03.2.15.4.29.6.42,1.1.78,2.25,1.42,3.45,2,.39.19.78.37,1.18.54.03.02.05.03.07.04.97.42,1.95.81,2.95,1.18.24.1.49.19.74.28.19.07.39.14.58.22.03.01.05.02.08.03.51.19,1.01.38,1.51.57.03.02.05.03.08.03.55.22,1.09.44,1.64.65.01.01.02.01.03.02.3.12.61.24.91.36.28.11.56.22.84.33.03.02.06.03.1.04.59.24,1.18.47,1.78.7.01,0,.03,0,.04.02.66.25,1.33.51,1.99.76h.01c.88.34,1.75.68,2.62,1.02.52.2,1.04.42,1.56.62.03.01.06.03.1.04.6.24,1.21.47,1.84.65.06.02.11.03.17.05l.12.03c.76.19,1.52.22,2.3.17.03.01.07,0,.11,0h.01c1.43-.1,2.85-.17,4.28-.23.09,0,.18,0,.27-.02.06,0,.12,0,.18-.01.55-.03,1.09-.08,1.63-.14.02-.01.03-.01.05-.01.5-.06,1-.12,1.5-.19.84-.12,1.68-.23,2.52-.33h.02c.69-.08,1.38-.16,2.07-.24h.04c1.24-.14,2.48-.26,3.72-.36.07-.01.14-.01.21-.02.5-.04,1.01-.08,1.52-.12h.06c1.42-.11,2.84-.2,4.27-.27h.08c.72-.04,1.44-.07,2.17-.09.02-.01.04-.01.06-.01.66-.03,1.32-.05,1.98-.06.04,0,.08,0,.12,0h.13c.56-.01,1.13-.02,1.69-.03h.07c.6-.01,1.2-.01,1.8-.01.03-.01.07-.01.11,0,.58-.01,1.17-.01,1.75-.01h.15c.59,0,1.18,0,1.77-.02h.24c.31-.01.63-.04,1.03-.06-.21.49-.57.61-.95.66ZM898.69,462.68c-1.67.02-3.34.03-5.02.04-7.44.06-14.83.63-22.18,1.65-2.18.3-4.38.3-6.57.51-1.74.17-3.37-.25-4.95-.93-2.56-1.1-5.17-2.07-7.78-3.05-1.75-.66-3.44-1.46-5.22-2.06-2.24-.75-4.38-1.71-6.49-2.74-.87-.42-1.71-.88-2.48-1.44-.19-.14-.43-.23-.5-.51.28-.2.63-.14.95-.15,3.1-.13,6.19-.44,9.3-.38,2.8.06,5.59-.09,8.39-.05,4.76.07,9.5-.21,14.25-.39,2.31-.09,4.63-.12,6.95-.11,2.09,0,4.01.49,5.86,1.44,2.69,1.38,5.51,2.48,8.29,3.66,2.25.95,4.5,1.93,6.74,2.91.69.31,1.38.66,1.9,1.26-.43.38-.95.33-1.44.34Z"/>
      <path class="cls-1" d="M880.73,428.75c-.16-.03-.33-.05-.5-.05-2.94-.05-5.88-.09-8.83-.14-4.97-.08-9.93-.16-14.91-.23-.14,0-.29,0-.43,0-.26.25-.51.5-.78.73.15,0,.3,0,.45,0,7.18.12,14.36.23,21.53.34.77.01,1.53.02,2.3.03q.74.01.62.7c-.56,3.13-1.11,6.27-1.66,9.4h-.01l-1.56,9c-.02.16-.07.32-.08.48-.01.38-.24.45-.56.46-1.44.03-2.87.07-4.3.11-10.47.32-20.93.64-31.39.96-.9.03-.89.03-.82-.85.15-1.88.3-3.76.44-5.64.03-.4.06-.81.1-1.22-.26.16-.53.3-.8.45-.04.51-.08,1.01-.11,1.51-.08.99-.16,1.98-.23,2.97-.07.95-.15,1.9-.2,2.85-.03.6.07.69.7.68.4,0,.81-.01,1.21-.02,10.66-.33,21.31-.65,31.97-.97,1.31-.04,2.62-.08,3.94-.13.55-.02.59-.07.71-.58.03-.14.05-.28.08-.42.56-3.2,1.13-6.4,1.77-9.97.51-2.96,1.08-6.28,1.65-9.6.03-.14.05-.27.06-.41.03-.25-.1-.41-.35-.45Z"/>
      <path class="cls-1" d="M860.63,426.44c.31.07.51.16.52.42.01.24-.13.38-.35.45-.3.09-.61.09-.91,0-.2-.07-.33-.2-.34-.4-.02-.22.13-.34.33-.38.28-.06.55-.13.75-.08Z"/>
      <path class="cls-1" d="M845,456.51c-.29-.06-.48-.14-.47-.37,0-.29.24-.3.47-.31,2.89-.14,5.76-.39,8.66-.28,1.56.06,3.1-.18,4.66-.13,2.28.07,4.53-.21,6.8-.21,4.73,0,9.46-.27,14.19-.27.29,0,.57,0,.86.01.26,0,.5.1.5.39,0,.31-.27.35-.52.35-1.22.02-2.44.05-3.66.04-2.8-.02-5.59.22-8.38.19-2.47-.02-4.92.17-7.38.22-3.92.09-7.84.11-11.75.18-1.17.02-2.34.11-3.51.17-.19,0-.38,0-.48,0Z"/>
      <path class="cls-1" d="M885.94,457.22c-.07.31-.32.35-.6.35-1.12.01-2.25.04-3.37.05-3.99.06-7.97.2-11.96.37-5.06.21-10.12.39-15.17.6-1.14.05-2.28.18-3.42.27-.14.01-.28.04-.43.04-.19,0-.33-.1-.35-.29-.02-.15.06-.28.21-.33.2-.06.41-.1.63-.13,2.61-.32,5.23-.41,7.86-.5,3.01-.1,6.01-.25,9.02-.36,3.82-.14,7.64-.27,11.46-.39,1.74-.05,3.49-.06,5.23-.09.19,0,.38-.01.57.01.22.03.35.15.33.39Z"/>
      <path class="cls-1" d="M880.55,461.11c-.08-.09-.18-.16-.28-.23-.77-.52-1.57-1.02-2.32-1.57-.72-.53-1.51-.68-2.37-.57-.09.01-.19.02-.28.03-1.62.15-3.23.32-4.86.35-.31,0-.62.05-.92.09-.22.02-.45.08-.49.33-.04.27.06.47.33.64.95.59,1.88,1.22,2.82,1.84.12.07.25.15.32.19.22.09.38.07.54.02.44-.13.89-.15,1.35-.18,1.81-.13,3.62-.17,5.44-.22.16,0,.34.01.5-.03.36-.08.46-.41.22-.69ZM879.01,461.08c-.38.02-.75.04-1.13.06-1.59.08-3.19.13-4.77.36-.17.02-.33.04-.48-.06-.71-.49-1.48-.89-2.15-1.43-.03-.02-.03-.08-.04-.13.16-.11.35-.08.53-.08,1.44-.01,2.86-.12,4.28-.28.95-.11,1.8-.02,2.57.58.39.31.82.57,1.23.85-.01.04-.03.09-.04.13Z"/>
      <path class="cls-1" d="M881.41,459.45c-.3-.05-.48-.11-.47-.36.01-.23.19-.3.4-.31.24,0,.48,0,.72,0,1.98-.02,3.95-.2,5.93-.29.5-.02,1-.03,1.5-.02.25,0,.5.09.49.39,0,.31-.26.35-.51.35-2.51.02-5,.3-7.51.26-.21,0-.43-.02-.55-.02Z"/>
      <path class="cls-1" d="M864.74,459.85c.28.05.49.14.47.41-.02.26-.23.31-.46.33-1.99.15-3.98.41-5.99.31-.52-.03-1.05.05-1.57.08-.14,0-.28.04-.43.04-.23,0-.46-.06-.47-.32-.01-.23.18-.31.38-.33.64-.06,1.28-.16,1.92-.16,1.79.02,3.57-.12,5.34-.32.28-.03.57-.08.8-.03Z"/>
      <path class="cls-1" d="M853.04,448.21c1.58-1.47,3.16-2.92,4.84-4.27,3.63-2.93,7.39-5.7,11.1-8.54,1.77-1.35,3.49-2.76,5.24-4.15.27-.21.52-.45.88-.5.02.06.04.08.04.1,0,.02,0,.06-.01.07-7.27,5.74-14.79,11.16-21.83,17.17-.07.06-.17.07-.26.11Z"/>
      <path class="cls-1" d="M848.03,446.7c2.01-1.99,4.1-3.9,6.35-5.62,1.86-1.43,3.62-2.98,5.53-4.34,2.06-1.47,4.08-3,6.16-4.45.75-.52,1.55-.97,2.33-1.47.1-.06.21-.1.32-.14.1-.03.19.03.23.12.03.08-.03.12-.09.15-4.38,2.55-8.37,5.63-12.35,8.73-2.72,2.12-5.33,4.35-7.87,6.67-.17.16-.32.34-.56.41-.02-.02-.03-.05-.05-.07Z"/>
      <path class="cls-1" d="M857.19,431.39c-3.16,2.44-6.39,4.78-9.5,7.44-.03-.46.26-.59.45-.75.93-.78,1.85-1.58,2.81-2.32,1.78-1.36,3.6-2.7,5.4-4.03.23-.17.45-.4.83-.33Z"/>
      <path class="cls-1" d="M874.57,466.44c-.18-.67,0-1.26.37-1.81l-.37,1.81Z"/>
      <path class="cls-1" d="M882.3,465.86c-.04-.73.02-1.36.21-2,.22.37.13,1.25-.21,2Z"/>
      <path class="cls-1" d="M848.26,459.92c.16.6.15,1.2,0,1.79-.28-.6-.08-1.2,0-1.79Z"/>
      <path class="cls-1" d="M846.58,461.18c-.24-.62-.07-1.21.11-1.79.16.61.01,1.2-.11,1.79Z"/>
      <path class="cls-1" d="M841.05,458.8c-.22-.53-.11-1.04.07-1.54.16.52.1,1.04-.07,1.54Z"/>
      <path class="cls-1" d="M898.99,462.96c-.04.65-.12,1.14-.36,1.61-.2-.42-.09-.99.36-1.61Z"/>
      <path class="cls-1" d="M859.82,466.49c-.09-.64-.11-1.27.04-1.97.21.41.2,1.04-.04,1.97Z"/>
      <path class="cls-1" d="M862.02,465.11c.16.78-.09,1.34-.11,1.96-.16-.39-.13-1.16.11-1.96Z"/>
      <path class="cls-1" d="M842.3,459.42c-.19-.6-.13-1.19.04-1.78.13.59.13,1.19-.04,1.78Z"/>
      <path class="cls-1" d="M849.84,462.32c-.23-.55-.09-1.06.13-1.57.1.54.05,1.06-.13,1.57Z"/>
      <path class="cls-1" d="M851.68,463.09c-.15-.6-.13-1.18.11-1.75.13.6-.07,1.17-.11,1.75Z"/>
      <path class="cls-1" d="M857.55,465.32c-.17-.52-.06-1,.07-1.48.13.51.06,1.01-.07,1.48Z"/>
      <path class="cls-1" d="M869.21,465.35l-.28,1.37c-.05-.48-.11-.97.12-1.4.05.01.11.02.16.03Z"/>
      <path class="cls-1" d="M880.96,463.85c.04.62-.15,1.19-.4,1.76.08-.6.15-1.2.23-1.8.06.01.11.03.17.04Z"/>
      <path class="cls-1" d="M884.63,465.46c.05-.55-.05-1.12.22-1.63.14.57-.05,1.1-.22,1.63Z"/>
      <path class="cls-1" d="M843.78,458.53c.18.55.19.89.06,1.5-.27-.55-.11-1.03-.06-1.5Z"/>
      <path class="cls-1" d="M896.71,464.53c-.06-.45-.12-.89.22-1.27.05.44-.07.86-.22,1.27Z"/>
      <path class="cls-1" d="M839.88,456.71c.06.49.16.99-.12,1.54-.23-.6,0-1.07.12-1.54Z"/>
      <path class="cls-1" d="M866.63,467.23c-.2-.61-.07-1.19.21-1.74-.07.58-.14,1.16-.21,1.74Z"/>
      <path class="cls-1" d="M845.32,459.02c0,.55.08,1.08-.14,1.57-.15-.55-.08-1.08.14-1.57Z"/>
      <path class="cls-1" d="M838.71,455.99c.24.48.09.95.05,1.42-.31-.48-.03-.95-.05-1.42Z"/>
      <path class="cls-1" d="M877.04,464.34c0,.54.03,1.08-.19,1.59-.02-.54-.08-1.09.19-1.59Z"/>
      <path class="cls-1" d="M864.3,466.83c.06-.47-.03-.96.12-1.45.18.55.16.8-.12,1.45Z"/>
      <path class="cls-1" d="M853.65,462.16c.04.51.06,1.03-.11,1.59-.15-.73-.14-.98.11-1.59Z"/>
      <path class="cls-1" d="M837.61,456.84c-.24-.65-.07-1.12.06-1.6.05.49.1.98-.06,1.6Z"/>
      <path class="cls-1" d="M855.69,464.48c-.2-.49-.07-.97-.05-1.46.29.49-.03.97.05,1.46Z"/>
      <path class="cls-1" d="M870.64,466.44c0-.49,0-.97.28-1.39l-.28,1.39Z"/>
      <path class="cls-1" d="M886.62,464.96c-.04-.53.07-1.02.28-1.5.02.52-.06,1.02-.28,1.5Z"/>
      <path class="cls-1" d="M890.93,464.69c0-.5.05-.99.3-1.44.03.51-.09.98-.3,1.44Z"/>
      <path class="cls-1" d="M878.79,464.32c.03.47-.03.93-.28,1.48-.05-.61.09-1.05.28-1.48Z"/>
      <path class="cls-1" d="M894.77,464.62c-.03-.51.08-.91.22-1.4.12.54.09.71-.22,1.4Z"/>
      <path class="cls-1" d="M889.11,463.45c.12.45-.06.84-.2,1.23-.11-.45.06-.84.2-1.23Z"/>
      <path class="cls-1" d="M892.88,464.6c-.06-.41-.02-.8.23-1.26.08.52-.07.88-.23,1.26Z"/>
      <path class="cls-1" d="M872.4,466.03c-.04-.36.05-.7.2-1.03.06.37-.03.71-.2,1.03Z"/>
      <path class="cls-1" d="M847.35,447.3c-.08.3-.4.35-.61.51.17-.21.31-.45.62-.49v-.02Z"/>
      <path class="cls-1" d="M847.36,447.32c.13-.3.41-.45.67-.62.02.02.03.05.05.07-.19.24-.39.48-.73.53,0,0,.01.02.01.02Z"/>
    </g>
    <g>
      <path class="cls-1" d="M901.74,389.54c.27.06.27.32.31.51.29,1.54.49,3.08.55,4.63.15-.13.31-.25.47-.35.09-.06.19-.08.29-.13-.07-1.31-.27-2.61-.48-3.9-.04-.25-.09-.5-.18-.75-.29-.83-.98-1.05-1.68-.53-.21.15-.39.34-.57.53-.39.43-.72.91-1.03,1.4-.77,1.22-1.44,2.49-2.05,3.8-.21.44-.49.56-.94.53-1.24-.08-2.48-.13-3.73-.21-.41-.03-.82-.04-1.22,0-.14.01-.28.03-.42.05-.8.14-1.14.62-.91,1.19.06.15.16.31.3.47.21.26.45.5.69.72.96.86,1.91,1.74,2.9,2.56.42.36.44.68.26,1.15-.54,1.43-1.03,2.88-1.53,4.33-.18.51-.28,1.04-.16,1.58.02.07.04.13.06.19.23-.57.52-1.11.87-1.62,0-.01.01-.03.02-.04.52-1.54,1.03-3.08,1.54-4.62.02-.07.03-.14.06-.2.18-.42.07-.72-.3-1.03-1.13-.96-2.22-1.96-3.31-2.96-.26-.23-.55-.46-.68-.84.62-.29,1.26-.23,1.9-.19,1.34.09,2.67.13,4.01.15.54.01.87-.16,1.1-.66.66-1.36,1.36-2.69,2.2-3.96.35-.54.72-1.08,1.19-1.54.13-.13.26-.3.47-.26Z"/>
      <path class="cls-1" d="M899.98,393.24c-.32,1-.86,1.78-1.21,2.68-.17-.52.38-1.74,1.21-2.68Z"/>
      <path class="cls-1" d="M900.39,392.47c-.01-.41.2-.7.5-.95-.03.38-.18.71-.5.95Z"/>
    </g>
    <g>
      <path class="cls-1" d="M856.56,470.54c-.8-.04-1.49.19-1.89.88-.4.71-.31,1.44.15,2.12.4.6.97.98,1.67,1.15,1.19.3,2.27-.29,2.51-1.34.29-1.32-.94-2.73-2.44-2.81ZM858.15,473.47c-.25.43-.82.63-1.44.49-.59-.12-1.05-.45-1.34-.97-.22-.39-.27-.8-.02-1.19.26-.41.67-.54,1.16-.5.58.04,1.05.3,1.41.74.38.44.46,1.03.23,1.43Z"/>
      <path class="cls-1" d="M856.37,472.72s-.07-.06-.08-.1c-.02-.14-.05-.29.14-.34.03,0,.1.02.12.04.1.13-.06.2-.08.31,0,.03-.06.06-.1.09Z"/>
    </g>
    <g>
      <path class="cls-1" d="M971.03,404.4c-.01.17-.02.33-.03.5-.11,1.6-.28,3.19-.48,4.77-.2,1.5-.24,3.01-.38,4.52-.02.25-.01.51-.15.83-.58-.21-1.11-.16-1.65.14-.11-.28-.07-.52-.06-.76.17-3.11.34-6.23.51-9.34.01-.2.02-.4.03-.6-.25.01-.51.03-.76.05-.01.2-.02.41-.03.61-.11,1.98-.22,3.96-.33,5.94-.06,1.22-.14,2.45-.21,3.75q-.89-.32-1.8-.01c0-.97,0-1.92.01-2.87.02-2.2.03-4.41.05-6.61,0-.19,0-.37,0-.56-.26.04-.51.07-.77.11,0,.17,0,.34,0,.52-.02,3.18-.05,6.38-.07,9.6-.69-.48-1.21-.25-1.8.05-.03-.52-.07-.98-.07-1.43.04-2.36-.16-4.7-.22-7.06-.01-.32-.02-.63-.02-.95,0-.12,0-.24,0-.37-.25.04-.5.09-.75.13,0,.1,0,.2,0,.3.05,1.92.1,3.83.19,5.75.07,1.54.15,3.08-.03,4.61-.03.22.04.41.14.6.64,1.34,1.17,2.72,1.62,4.13.24.77.59,1.49.95,2.21.15.29.33.57.57.81.42.4.76.43,1.2.06.33-.27.55-.62.76-.99.71-1.23,1.35-2.49,1.97-3.76.81-1.63,1.43-3.3,1.49-5.16.04-1.37.18-2.74.35-4.1.22-1.66.4-3.32.52-4.99.01-.15.02-.3.03-.45-.26,0-.52.01-.78.01ZM967.69,420.83c-.38.68-.75,1.38-1.17,2.04-.33.52-.46.52-.77,0-.49-.82-.84-1.68-1.13-2.57-.1-.29-.01-.44.27-.53.62-.19,1.25-.27,2-.13.1.04.31.12.5.21.56.3.6.42.3.98ZM969.79,416.45c-.43,1.05-.88,2.09-1.47,3.11-1.19-.82-2.41-.88-3.67-.43-.3.11-.42.01-.53-.25-.33-.79-.57-1.6-.98-2.35-.12-.23-.08-.4.1-.56.14-.12.27-.27.42-.37.39-.28.58-.25.91.13.15.16.26.34.4.5.39.44.66.41.9-.1.06-.14.11-.3.2-.44.32-.49.69-.49,1.09-.03.16.19.2.42.29.64.2.46.53.51.86.11.17-.22.29-.48.54-.63.21-.12.45-.23.67-.07.24.18.39.44.27.74Z"/>
      <path class="cls-1" d="M966.85,405.86c.05.79-.17,7.55-.26,7.92-.21-.03-.17-.2-.17-.31.07-1.58.13-3.15.22-4.72.05-.76.06-1.53.07-2.29,0-.18-.02-.37.13-.59Z"/>
      <path class="cls-1" d="M969.56,409.87c0,1.36,0,2.74-.35,4.08.02-1.36.07-2.73.35-4.08Z"/>
      <path class="cls-1" d="M963.81,413.99c-.31-1.19-.24-2.4-.28-3.61.27,1.19.24,2.4.28,3.61Z"/>
      <path class="cls-1" d="M963.39,406.87c.18.52.2,1.05.1,1.58-.28-.51-.18-1.05-.1-1.58Z"/>
    </g>
    <g>
      <path class="cls-1" d="M885.21,411.35c.11-.24.24-.32.49-.17.4.25.82.48,1.24.72.1-.21.22-.42.35-.6-.43-.24-.86-.49-1.31-.73-.26-.15-.3-.32-.21-.58.23-.61.43-1.23.53-1.88.16-.6.22-1.23.25-1.86.09-1.64-.08-3.22-.5-4.7,0,0-.01.02-.02.02-.15.23-.35.42-.59.56.24.96.35,1.96.35,3-.01,5.35-2.43,9.35-7.33,11.77-2.33,1.16-4.86,1.39-7.8.78-.8-.18-1.56-.45-2.28-.78-.13-.06-.25-.13-.38-.2-.21.18-.42.35-.63.53.14.08.27.16.42.23,1.7.85,3.63,1.28,5.79,1.28,4.24,0,7.59-1.86,10.16-5.06.61-.76.6-.76,1.49-.29.54.28,1.05.56,1.37,1.08.01-.05.03-.1.04-.15,0,0,0,0,0,0,0-.04,0-.09.01-.15,0-.27.01-.72,0-.79-.01-.2,0-.38.03-.57-.1.13-.2.26-.3.39-.47-.23-.93-.47-1.4-.69-.27-.13-.28-.28-.14-.5.13-.22.25-.44.35-.67Z"/>
      <path class="cls-1" d="M904.7,419.75c-.64-.79-1.42-1.41-2.28-1.95-.4.06-.82.1-1.24.11.33.19.66.4.98.61.01,0,.02.01.03.02.25.16.49.34.73.52.18.14.36.29.52.45.05.04.1.09.15.14.28.28.53.58.75.9.01.01.01.02.02.03.03.04.05.07.06.11.34.55.31,1.1-.04,1.63-.19.29-.38.51-.58.68-.03.03-.07.06-.11.08-.31.24-.65.35-1.06.36-.09,0-.18,0-.29,0-.23-.01-.48-.06-.75-.11-.27-.08-.53-.17-.8-.27-.08-.03-.16-.05-.24-.09-.54-.2-1.08-.44-1.62-.7-.13-.06-.27-.13-.4-.19-.37-.2-.75-.4-1.12-.61-.02-.01-.03-.02-.05-.03-.04-.02-.08-.05-.12-.07-.75-.43-1.51-.87-2.26-1.32-.06-.03-.12-.06-.18-.1-.47-.28-.95-.57-1.42-.86-.29.14-.59.25-.89.34,1.97,1.23,4,2.38,6.06,3.47,1.09.59,2.26,1.07,3.51,1.26,1.24.18,2.35-.36,2.99-1.45.61-1.04.51-1.9-.35-2.97Z"/>
      <path class="cls-1" d="M883.97,403.19c-.12.08-.24.17-.37.25-.11.07-.23.12-.34.19.16,1.14.11,2.35-.22,3.96-.77,2.99-2.85,5.61-6.47,6.88-1.96.69-3.97.69-5.77.14-.07-.02-.14-.05-.21-.08-.21.19-.43.37-.64.55.09.03.17.07.25.1,1.85.66,3.92.76,5.97.18,4.24-1.19,6.68-4.08,7.74-8.17.23-1.09.28-2.18.17-3.28-.03-.25-.06-.49-.11-.73Z"/>
      <path class="cls-1" d="M902.26,418.47c-1.47,1.41-1.98,2.97-1.39,4.87-.48-.37-.65-1.12-.51-2.02.19-1.29.93-2.49,1.9-2.85Z"/>
      <path class="cls-1" d="M902.74,420.49c0,.55-.23,1.05-.24,1.59-.01.53-.07,1.06.21,1.54-.23.14-.3-.02-.36-.13-.18-.34-.2-.7-.18-1.08.03-.69.3-1.31.57-1.92Z"/>
      <path class="cls-1" d="M904.6,420.37c-.52.91-.93,1.85-.77,2.94-.56-.81-.18-2.24.77-2.94Z"/>
      <path class="cls-1" d="M898.64,420.99c.12.54.24,1.08.36,1.61.02.1.02.19-.1.21-.08.02-.14-.04-.17-.1-.23-.56-.38-1.12-.09-1.72Z"/>
      <path class="cls-1" d="M897.16,420.22c.13.44.25.85.25,1.32-.42-.37-.48-.66-.25-1.32Z"/>
      <path class="cls-1" d="M894.9,418.85c.14.66.14,1.03.04,1.49-.21-.47-.22-.69-.04-1.49Z"/>
      <path class="cls-1" d="M903.71,419.4c-.07.24-.15.36-.39.38,0-.23.15-.31.39-.38Z"/>
    </g>
    <g>
      <path class="cls-1" d="M899.78,429.86c-.95-.21-1.91.37-2.12,1.29-.21.91.42,1.86,1.37,2.08.96.22,1.9-.35,2.11-1.28.2-.93-.4-1.87-1.36-2.09ZM899.24,432.51c-.53-.09-.9-.61-.81-1.14.1-.55.59-.88,1.14-.77.54.1.92.62.83,1.13-.08.51-.63.88-1.16.78Z"/>
      <path class="cls-1" d="M898.73,431.31c.28.27.46.45.64.62-.5.07-.51.06-.64-.62Z"/>
      <path class="cls-1" d="M899.62,431.28s-.07.08-.09.07c-.13-.03-.21-.1-.2-.23,0-.02.06-.07.08-.06.14.01.18.12.21.23Z"/>
    </g>
    <g>
      <path class="cls-1" d="M911.34,474.52c-.33-.07-.56-.46-.5-.83.06-.36.38-.57.72-.48.3.08.48.38.42.72-.06.38-.36.66-.65.6Z"/>
      <path class="cls-1" d="M914.6,472c-.1.42-.37.65-.67.56-.29-.08-.45-.44-.36-.82.07-.29.3-.46.56-.42.29.05.53.4.47.68Z"/>
      <path class="cls-1" d="M915.3,475.88c-.06.31-.27.48-.53.43-.32-.06-.53-.44-.45-.84.07-.36.29-.53.57-.46.3.07.49.46.4.87Z"/>
    </g>
    <g>
      <path class="cls-1" d="M851.96,513.65c.25.04.57.39.53.56-.07.33-.37.57-.63.51-.24-.06-.4-.36-.35-.68.04-.26.19-.4.45-.4Z"/>
      <path class="cls-1" d="M848,514.82c.05-.24.53-.49.81-.43.26.06.31.27.26.49-.06.28-.42.49-.71.43-.28-.06-.38-.24-.37-.49Z"/>
      <path class="cls-1" d="M852.01,517.04c.12.18.58.02.49.44-.06.31-.38.5-.69.42-.31-.08-.48-.36-.38-.63.08-.24.27-.31.58-.23Z"/>
    </g>
    <g>
      <path class="cls-1" d="M869.66,487.42c-.16-.15-.33-.28-.51-.4-1.66-1.06-3.26-2.18-4.98-3.15-3.17-1.79-6.34-3.59-9.52-5.36-3.25-1.82-6.33-3.85-9.06-6.41-1.44-1.35-3.06-2.52-4.93-3.29-.21-.08-.3-.21-.34-.41-.23-1.16-.9-2.11-1.68-2.99-1.4-1.58-3.15-2.34-5.28-2.29-3.76.1-7.46.65-11.14,1.31-.1.02-.19.03-.28.06-.24.07-.46.2-.41.48.06.31.33.32.57.26,1.21-.29,2.34.06,3.42.53,1.24.53,2.16,1.47,3.12,2.6-.48.04-.76.07-1.04.09-2.72.22-5.41.56-8,1.4-1.07.34-2,.86-2.66,1.76-.28.39-.56.8-.81,1.22-.92,1.53-1.48,3.14-1.15,4.97.09.53.26.99.59,1.41.67.86,1.47,1.56,2.44,2.07,2.69,1.43,5.42,2.76,8.17,4.08,4.02,1.92,8.07,3.8,12.18,5.54,3.81,1.61,7.45,3.53,10.99,5.65.37.23.76.36,1.22.3,1.49-.16,2.99-.33,4.49-.43,4.09-.3,8.17-.69,12.25-1.13.45-.05.9-.12,1.35-.17.35-.05.53-.22.58-.58.12-.78.27-1.56.43-2.33.25-1.21.35-2.44.45-3.67.04-.47-.14-.82-.46-1.12ZM828.16,466.72c-.85-.74-1.7-1.48-2.81-1.81-.07-.01-.14-.05-.13-.16.19-.17.46-.15.71-.19,2.5-.38,5.01-.61,7.54-.69,1.81-.05,3.31.63,4.53,1.94.89.97,1.55,2.04,1.76,3.33.03.19.06.37.07.56,0,.6-.09.71-.73.72-2.75.05-5.48.23-8.2.56-.4.05-.8.11-1.27.17.41-1.81-.12-3.24-1.47-4.43ZM822.18,469.93c2.03-.4,4.09-.65,6.17-.77.57-.03.61,0,.65.54.03.42-.04.83-.17,1.23-.26.78,0,1.08.81.94,2.35-.4,4.74-.48,7.12-.62.96-.06,1.91-.09,2.87-.07.4.01.58-.15.69-.45.11-.32.19-.66.29-1.02.38-.07.68.15.98.32,1.26.75,2.44,1.61,3.5,2.62,2.73,2.6,5.87,4.65,9.16,6.49,3.25,1.81,6.47,3.64,9.71,5.47,1.54.87,2.98,1.9,4.49,2.84.08.05.16.11.18.26-1.11.11-2.21.24-3.31.32-3.91.27-7.81.52-11.72.79-.69.05-1.41.34-2.04.19-.61-.13-1.11-.69-1.69-1.03-4.04-2.39-8.08-4.79-11.92-7.48-.87-.6-1.68-1.27-2.47-1.96-2.11-1.83-4.24-3.64-6.6-5.17-2.06-1.34-4.24-2.43-6.61-3.1-.13-.04-.29-.04-.37-.19.03-.16.18-.13.28-.15ZM850.13,493.27c-.17.82-.31,1.64-.42,2.59-.77-.44-1.43-.81-2.09-1.19-3.05-1.78-6.23-3.29-9.48-4.67-4.08-1.75-8.11-3.63-12.11-5.54-2.58-1.23-5.13-2.5-7.65-3.84-.17-.09-.34-.18-.5-.28-2.3-1.46-2.71-3.23-1.78-5.71.3-.8.75-1.54,1.24-2.25.96-1.39,2.37-1.95,4.08-1.56,2.3.53,4.39,1.54,6.39,2.76,2.2,1.33,4.21,2.92,6.11,4.62,2.66,2.39,5.61,4.39,8.67,6.25,1.69,1.03,3.38,2.09,5.08,3.12.68.4,1.39.76,2.08,1.15.27.15.53.31.8.48.25.15.32.36.26.65-.24,1.14-.43,2.29-.68,3.42ZM869.18,490.49c-.14,1.16-.37,2.29-.55,3.44-.05.33-.19.49-.54.51-.62.04-1.23.1-1.85.17-1.4.15-2.79.33-4.19.47-3.77.35-7.56.58-11.32,1.04-.07,0-.14-.01-.26-.03.07-.62.12-1.24.24-1.85.24-1.27.51-2.55.71-3.83.1-.64.12-.65.8-.75,1.23-.17,2.47-.19,3.71-.27,4.16-.25,8.33-.48,12.48-.89.28-.03.57-.09.88-.01.08.67-.03,1.34-.11,2Z"/>
      <path class="cls-1" d="M862.62,485.77c-.21-.19-.42-.39-.66-.54-.8-.49-1.6-.97-2.41-1.43-1.13-.63-2.34-1.15-3.4-1.87-1.69-1.14-3.44-2.17-5.17-3.24-.24-.15-.47-.18-.74-.16-2.92.29-5.81.82-8.72,1.12-.12.02-.24.02-.36.05-.42.1-.51.4-.21.7.09.09.2.15.29.22,3.08,2.24,6.24,4.35,9.49,6.34.22.14.46.25.66.36.26,0,.48.01.69-.02,2.35-.22,4.7-.45,7.06-.61,1.04-.07,2.09-.17,3.14-.14.2,0,.39-.03.49-.22.12-.22.02-.41-.15-.56ZM858.97,485.95c-.32.02-.64.04-.96.07-.1,0-.21.01-.31.02-.91.06-1.81.14-2.72.23l-.33.03c-.87.08-1.73.17-2.6.25-.33.03-.61-.01-.88-.19-.59-.38-1.19-.75-1.78-1.13-.07-.04-.15-.09-.22-.14-1.21-.75-2.42-1.5-3.6-2.3-.04-.02-.08-.04-.11-.07-.73-.49-1.46-1-2.16-1.53-.37-.28-.83-.47-1.19-.87,1.08-.14,2.11-.26,3.14-.41.1-.01.21-.03.31-.04.1-.02.21-.03.31-.04.93-.13,1.86-.24,2.8-.35.1-.01.2-.02.31-.03.36-.04.73-.08,1.1-.12.35-.04.64.01.95.2,1,.61,2,1.23,2.98,1.87.12.07.23.15.34.22.41.27.81.55,1.2.83.66.47,1.37.82,2.09,1.18.17.08.33.17.5.25.23.12.46.24.69.37.8.46,1.63.89,2.5,1.55-.9.06-1.63.11-2.36.15Z"/>
      <path class="cls-1" d="M846.93,475.3c-.65-.7-1.4-1.29-2.12-1.92-.77-.67-1.57-.88-2.56-.75-2.37.32-4.7.75-7.02,1.27-.63.14-1.26.29-1.88.43-.2.04-.37.13-.42.33-.05.22.1.36.28.45,1.19.65,2.06,1.63,2.8,2.71.23.34.45.41.83.3,3.07-.86,6.21-1.42,9.4-1.73.24-.02.47-.06.71-.1.18-.03.29-.14.33-.31,0-.29-.17-.48-.35-.68ZM845.61,475.69c-2.82.29-5.6.83-8.33,1.57-.7.2-.61.23-1.05-.35-.56-.74-1.21-1.39-2.09-2.04,1.05-.22,1.92-.42,2.81-.59,1.8-.34,3.59-.68,5.41-.9.82-.1,1.48.03,2.1.62.54.52,1.19.93,1.64,1.55-.16.15-.33.13-.49.14Z"/>
      <path class="cls-1" d="M855.3,484.13c.74-.09,1.33-.15,1.92-.24.3-.04.6-.02.92-.01.28,0,.56,0,.85-.09-.19-.17-.36-.14-.52-.15-.28-.02-.56-.02-.83-.01-.7.03-1.4.14-2.09.22-.26.03-.53.11-.77-.07-.79-.61-1.64-1.14-2.43-1.84.65-.17,1.29-.22,2-.32.15-.01.3-.03.45-.06-.34-.19-.57-.19-.79-.16-.02.01-.03.01-.05.01-.45.06-.9.11-1.34.21-.43.1-.78.02-1.13-.26-.82-.66-1.67-1.28-2.51-1.91-.13-.09-.25-.29-.53-.16.07.07.15.13.22.19.92.82,1.96,1.43,2.9,2.28-.78.13-1.48.24-2.17.37-.36.07-.64,0-.92-.24-.78-.64-1.57-1.26-2.37-1.87-.07-.05-.14-.14-.24-.19-.1-.06-.22-.1-.41-.04.03.03.07.05.1.08.99.78,1.93,1.53,2.95,2.33-1.08.21-2.09.26-3.05.52-.11.02-.23.05-.34.09.15,0,.3-.01.45-.02.78-.04,1.55-.12,2.31-.24.6-.1,1.1-.03,1.6.35.72.55,1.49,1.02,2.34,1.59-.95.21-1.81.41-2.65.6-.07.02-.13.03-.2.05.1.11.17.12.24.12.06,0,.12,0,.18-.03.82-.09,1.61-.28,2.41-.46.32-.07.59-.03.87.16.62.45,1.25.88,1.89,1.31.03.02.06.04.09.06.15.12.31.27.64.21-.1-.08-.21-.17-.31-.24-.74-.57-1.49-1.06-2.35-1.65.71-.14,1.24-.22,1.77-.35.38-.09.68.01,1,.23.75.54,1.54,1.03,2.3,1.54.01,0,.01.01.02.01.13.09.23.24.49.1-.07-.05-.13-.09-.2-.13-.89-.62-1.8-1.17-2.71-1.89ZM852.56,484.35c-.17.04-.33.08-.49-.02-.93-.61-1.86-1.22-2.89-1.9.9-.15,1.66-.29,2.43-.42.19-.04.38.01.54.13.78.58,1.56,1.17,2.43,1.83-.76.15-1.39.26-2.02.38Z"/>
      <path class="cls-1" d="M852.96,493.28c.87-.41,12.73-2.17,13.99-2.02-1.15.19-2.3.4-3.45.57-1.18.17-2.36.28-3.54.44-1.18.16-2.35.39-3.53.54-1.16.15-2.29.45-3.47.47Z"/>
      <path class="cls-1" d="M863.63,489.85c-3.33.6-6.67,1.1-10.07,1.19,1.67-.34,3.37-.44,5.05-.66,1.66-.22,3.32-.51,5.01-.52Z"/>
      <path class="cls-1" d="M867.13,493.62c-2.56.35-5.11.62-7.68.66,2.56-.24,5.1-.68,7.68-.66Z"/>
      <path class="cls-1" d="M817.29,478.87c-.69-1.05-.11-4,.88-4.82-.61,1.5-.97,3.05-.88,4.82Z"/>
      <path class="cls-1" d="M856.07,494.6c-1.37.16-2.74.32-4.11.47,0-.05-.01-.1-.02-.14,1.33-.39,2.72-.36,4.09-.49.01.05.03.1.04.16Z"/>
      <path class="cls-1" d="M818.77,476.6c.02.65-.17,1.15-.3,1.69-.2-.61-.13-1.12.3-1.69Z"/>
      <path class="cls-1" d="M866.14,489.54c-.32.15-.6.19-.95.19q.38-.25.95-.19Z"/>
      <path class="cls-1" d="M848.41,493.16c-.03.17-.08.32-.29.31-.2,0-.44-.47-.39-.73.04-.19.17-.26.36-.23.28.04.39.27.32.65Z"/>
      <path class="cls-1" d="M848.94,490.87c-.14.18-.33.15-.52.08-.28-.1-.42-.35-.3-.54.08-.13.22-.17.37-.12.23.07.51.43.45.57Z"/>
      <path class="cls-1" d="M845.8,491.47c-.03.23-.17.35-.43.29-.24-.06-.37-.21-.32-.46.05-.25.24-.34.47-.32.29.02.3.24.28.48Z"/>
    </g>
    <g>
      <path class="cls-1" d="M886.2,484.25s.1.15.2.28c.75.98,1.55,1.91,2.55,2.67.19.14.32.32.16.53-.15.21-.38.15-.58.04-.16-.09-.32-.21-.46-.34-.81-.7-1.54-1.48-2.2-2.32-.13-.17-.28-.33-.29-.55-.02-.27.21-.45.62-.31Z"/>
      <path class="cls-1" d="M886.64,492.94c-.04.13-.18.18-.36.17-1.1-.09-2.2-.04-3.28.14-.22.04-.39-.04-.45-.25-.07-.25.07-.4.3-.47.18-.05.37-.08.56-.11.83-.1,1.67-.1,2.51-.07.19,0,.38,0,.56.11.15.1.25.22.18.48Z"/>
      <path class="cls-1" d="M887.58,497.7c-.04.16-.19.23-.35.29-.9.33-1.73.76-2.45,1.37-.2.17-.44.23-.63,0-.17-.2-.06-.41.11-.55.83-.72,1.79-1.2,2.84-1.52.33-.1.57.12.48.4Z"/>
      <path class="cls-1" d="M894,480.87c.18.07.26.2.28.38.09.96.34,1.88.67,2.78.07.2.04.38-.17.47-.26.1-.42-.05-.5-.26-.39-.93-.67-1.9-.74-2.9,0-.11.04-.23.09-.33.06-.12.25-.17.37-.13Z"/>
      <path class="cls-1" d="M918.63,496.75c.34.14.47.31.27.61-.11.17-.24.14-.35.04-.31-.27.01-.43.08-.64Z"/>
      <path class="cls-1" d="M905.66,510.26q-.13.42-.48.41c.04-.27.31-.29.48-.41Z"/>
      <path class="cls-1" d="M929.47,520.71s.1-.03.15-.04c0-.21,0-.43-.01-.64,0-.04,0-.09,0-.13-.07.02-.13.04-.2.06-.97.23-2,.19-3.08-.09-.54-.13-1.07-.3-1.57-.52-.51-.21-1.01-.43-1.49-.78.18-.24.42-.32.61-.45,1.9-1.29,3.5-2.81,4.76-4.57-.07-.35-.14-.71-.21-1.06-1.35,2.06-3.11,3.8-5.32,5.21-.57.37-1.02.35-1.63.04-2.08-1.06-3.99-2.39-6.05-3.48-1.52-.82-2.98-1.75-4.58-2.41-1.73-.72-3.48-1.38-5.31-1.82-.72-.18-1.43-.4-2.26-.7.47-.33.86-.58,1.23-.87,1.53-1.19,2.74-2.67,3.82-4.25,2.19-3.22,3.79-6.71,4.74-10.49.15-.58.23-1.18.35-1.8.29.07.38.3.51.48,1.11,1.45,2.32,2.83,3.57,4.18,1.57,1.7,3.46,2.99,5.45,4.16,1.45.84,2.91,1.67,4.37,2.5-.02-.3-.04-.59-.05-.89-1.27-.73-2.55-1.45-3.81-2.19-1.58-.93-3.13-1.91-4.47-3.16,0-.01-.01-.02-.01-.02-.05-.04-.1-.09-.15-.14-.01-.01-.02-.01-.03-.02l-.25-.25c-2.01-2.04-3.75-4.3-5.49-6.56-1.77-2.28-3.27-4.77-5.51-6.71-1.17-1.01-2.36-1.48-3.86-1.13-.97.22-1.83.64-2.65,1.16-1.58,1.01-2.92,2.28-4.13,3.68-2.74,3.15-4.75,6.72-6.1,10.64-.71,2.05-1.16,4.16-1.1,6.35.03.94.18,1.86.58,2.73.48,1.05,1.25,1.81,2.44,2.01.61.1,1.23.23,1.85.21,1.85-.04,3.68.18,5.5.46,2.58.4,5.02,1.28,7.51,2.02.66.2,1.32.43,1.97.68,2.1.79,3.98,2.01,5.95,3.04.08.04.15.12.24.2-.42.69-.95,1.27-1.61,1.73-.56.38-1.14.75-1.7,1.13-.51.34-1.02.68-1.44,1.13-.39.4-.64.88-.58,1.44.09.85-.24,1.49-.84,2.04-1.03.95-1.78,2.08-2.35,3.31.27.03.54.06.82.09.5-1.04,1.16-1.98,2.03-2.81.45-.43.81-.9,1-1.49.1-.32.17-.64.11-.96-.07-.49.12-.86.46-1.19.29-.27.6-.51.93-.74.59-.4,1.16-.8,1.75-1.19.72-.47,1.29-1.07,1.8-1.75.3-.4.32-.4.74-.15,1.24.76,2.49,1.52,3.82,2.22-.06.1-.07.16-.11.18-1.59.88-2.5,2.34-3.41,3.81-.91,1.47-1.62,3.03-2.31,4.61-.17.38-.33.75-.49,1.13.23.1.47.21.7.32.12-.28.24-.56.37-.84.91-2.12,1.91-4.18,3.22-6.09.58-.86,1.25-1.61,2.15-2.17.83-.51.81-.53,1.7-.06.89.47,1.78.95,2.74,1.28,1.46.5,2.88.68,4.25.38ZM893.71,508.06c-1.21.1-2.09-.38-2.65-1.44-.37-.7-.52-1.46-.58-2.23-.1-1.34.04-2.66.34-3.95.16-.7.42-1.38.63-2.06,1.44-4.58,3.79-8.66,7.18-12.13.94-.95,1.97-1.8,3.14-2.48.61-.35,1.25-.66,1.95-.83,1.81-.46,3.12.25,3.69,2,.27.84.34,1.7.31,2.56-.03,1.48-.31,2.91-.7,4.33-.09.34-.24.48-.63.5-1.1.04-2.18.26-3.2.67-2.27.94-3.78,2.51-4.23,4.93-.29,1.59.06,3.11.73,4.57.15.32.32.64.5.94.12.21.15.36-.04.56-1.4,1.48-2.92,2.83-4.86,3.65-.5.22-1.02.37-1.58.41ZM906.6,493.15c-.86,2.44-1.98,4.72-3.39,6.86.01.01,0,.02-.02.03-.24.39-.5.77-.78,1.14-.04.08-.09.15-.16.22-.13.2-.28.4-.44.6-.03.05-.07.1-.12.15-.23.32-.48.63-.74.94-1.5-2.01-1.64-4.92-.68-6.68,1.09-2.02,3.91-3.39,6.33-3.26ZM901.41,508.91c-1.71-.36-3.45-.56-5.2-.72.03-.05.04-.1.07-.12,2.26-1.25,4.07-2.99,5.65-4.97,2.89-3.61,4.98-7.62,6.09-12.11.45-1.81.65-3.65.31-5.53-.01-.07-.01-.14-.01-.21,0-.01.03-.02.08-.06.27.19.46.45.65.71,1.14,1.52,2.26,3.05,3.42,4.56.26.35.23.7.19,1.07-.11.92-.28,1.84-.53,2.73-1.19,4.2-3.13,8.03-5.91,11.43-.67.83-1.43,1.6-2.29,2.25-.48.35-.98.66-1.54.86-.32.11-.63.18-.98.11Z"/>
      <path class="cls-1" d="M886.07,484.22c.14.05.22.2.32.33.74.96,1.53,1.88,2.51,2.63.18.14.36.3.2.52-.18.25-.43.16-.63.01-.51-.36-.96-.79-1.38-1.24-.43-.47-.85-.96-1.27-1.45-.11-.13-.21-.26-.23-.43-.04-.27.19-.46.47-.36Z"/>
      <path class="cls-1" d="M886.64,492.87c-.09.25-.28.22-.47.21-.74-.06-1.47-.02-2.2.03-.31.02-.61.08-.91.12-.23.03-.45,0-.5-.26-.05-.26.13-.38.36-.43.18-.04.37-.07.56-.09.8-.09,1.61-.08,2.42-.07.19,0,.38.01.55.12.15.09.25.21.2.39Z"/>
      <path class="cls-1" d="M887.57,497.69c-.07.18-.22.24-.38.3-.87.32-1.68.73-2.38,1.33-.05.04-.11.08-.18.11-.16.09-.33.07-.46-.06-.14-.14-.1-.3,0-.44.04-.06.09-.11.14-.15.8-.67,1.72-1.12,2.71-1.45.12-.04.23-.06.35-.01.19.07.24.21.2.38Z"/>
      <path class="cls-1" d="M894.97,484.28c-.13.21-.29.29-.49.17-.09-.06-.17-.17-.21-.28-.36-.9-.63-1.82-.71-2.77-.02-.26.04-.48.34-.51.23-.02.35.16.37.36.09.96.34,1.88.67,2.79.03.08.02.18.03.25Z"/>
      <path class="cls-1" d="M893.56,496.66c-1.07,3.24-1.71,6.52-.85,9.99-.17,0-.2-.18-.26-.31-.2-.46-.3-.93-.33-1.43-.16-2.58.07-5.11.99-7.53.1-.26.22-.5.45-.72Z"/>
      <path class="cls-1" d="M898.56,507.74c1.88-1.51,3.5-3.26,5.15-4.99-1.37,2-3.04,3.7-5.15,4.99Z"/>
      <path class="cls-1" d="M925.99,513.85c-.31.67-2.85,2.69-4.03,3.2.24-.4,3.08-2.65,4.03-3.2Z"/>
      <path class="cls-1" d="M929.56,519.26s0-.04,0-.05c-.64-.14-1.27-.3-1.9-.5-.68-.21-1.27-.64-1.99-.76.62.62,1.43.92,2.24,1.18.52.17,1.09.33,1.65.12Z"/>
      <path class="cls-1" d="M900.88,507.57c.11-.21,2.8-2.88,3.16-3.14-.15.63-1.94,2.42-3.16,3.14Z"/>
      <path class="cls-1" d="M909.46,487.14c.25,1.63-.05,3.2-.47,4.76.15-1.59.46-3.16.47-4.76Z"/>
      <path class="cls-1" d="M903.88,484.17c-1.05.78-2.2,1.42-3.18,2.45.3-.78,1.8-1.92,3.18-2.45Z"/>
      <path class="cls-1" d="M920.84,516.22c.54-.43,1.08-.87,1.63-1.29.09-.07.2-.15.3-.02.07.09.02.18-.05.24-.54.49-1.1.95-1.81,1.19-.02-.04-.04-.08-.07-.12Z"/>
      <path class="cls-1" d="M913.82,519.14c-.58.5-1.23.89-1.81,1.46.08-.61.77-1.17,1.81-1.46Z"/>
      <path class="cls-1" d="M927.14,516.91c.8.23,1.44.62,2.27.96-.83,0-1.77-.41-2.27-.96Z"/>
      <path class="cls-1" d="M894.05,494.99c.05-.61.43-1.02.75-1.54-.05.54-.41,1.26-.75,1.54Z"/>
      <path class="cls-1" d="M903.3,506.93c.31-.29.62-.58,1-.95-.1.54-.24.68-1,.95Z"/>
      <path class="cls-1" d="M901.25,501.29c.23.3.47.59.75.95-.52-.11-.57-.17-.75-.95Z"/>
      <path class="cls-1" d="M902.02,500.59c.21.31.41.61.62.92-.05.03-.1.06-.15.09-.36-.22-.42-.61-.58-.94.04-.02.08-.05.12-.07Z"/>
      <path class="cls-1" d="M903.25,500.08c-.27-.1-.46-.25-.6-.56.44.03.48.35.6.56Z"/>
      <path class="cls-1" d="M910.37,490.39c.05-.28.09-.55.17-.98.19.47.04.73-.17.98Z"/>
      <path class="cls-1" d="M911.55,491.01c.02-.18,0-.33.15-.39.02,0,.09.05.09.08.03.16-.06.24-.24.32Z"/>
      <path class="cls-1" d="M899.97,487.37c.12-.32.24-.42.37-.52.02.23-.17.3-.37.52Z"/>
      <path class="cls-1" d="M909.63,509.49c-.06.16-.2.22-.38.17-.28-.07-.49-.43-.41-.71.07-.23.23-.35.48-.27.21.07.39.56.31.81Z"/>
      <path class="cls-1" d="M906.87,508.98c-.25-.12-.31-.31-.26-.53.05-.22.2-.38.45-.35.24.03.31.22.25.41-.07.21-.16.43-.43.46Z"/>
      <path class="cls-1" d="M909.8,506.92c-.09.2-.24.22-.41.15-.23-.09-.34-.25-.25-.48.08-.2.24-.28.44-.18.21.11.27.3.22.51Z"/>
    </g>
    <path class="cls-1" d="M928.81,458.47c-.05.18-.18.33-.4.25-.27-.09-.34-.32-.28-.57.04-.19.12-.37.36-.34.21.03.37.37.31.65Z"/>
    <g>
      <path class="cls-1" d="M880.55,524.15c.81,1.14,1.68,2.23,2.59,3.3,0,0,0,.01.01.02.24-.1.49-.2.73-.29-1.09-1.27-2.18-2.56-3.12-3.94-.26-.38-.55-.37-.93-.31-2.64.41-5.28.81-7.91,1.2-.62.09-1.24.12-1.85.22-.37.05-.54-.07-.72-.39-1.02-1.84-1.91-3.75-2.85-5.62-.93-1.86-1.93-3.69-3.02-5.47-.42-.7-.64-.74-1.26-.18-.8.72-1.57,1.47-2.36,2.2-.12.11-.22.24-.46.3-.37-1.7-.28-13.76.1-14.99.38.18,12.83,7.91,13,8.08-1.29.59-2.61,1.04-3.96,1.4-.61.17-.72.34-.39.87,1.53,2.42,3.01,4.87,4.75,7.17.31.41.65.39,1.07.32,3.31-.54,6.66-.9,9.99-1.34.14-.02.29-.01.43-.04.41-.1.67.08.88.42.95,1.58,2.12,3.03,3.02,4.65.06.1.12.2.18.3.36.55.52.62,1.13.42.58-.2,1.14-.45,1.73-.64,1.88-.61,3.65-1.45,5.39-2.35.84-.43,1.72-.79,2.63-1.07.29-.09.47-.03.66.24,1.05,1.55,2.12,3.08,3.19,4.63.06.09.14.18.13.32-.22.18-.51.21-.78.3-1.92.63-3.83,1.26-5.74,1.9.74.02,1.48.04,2.23.06,1.41-.47,2.81-.94,4.22-1.39.21-.07.41-.12.61-.2.5-.21.56-.41.27-.85-1.21-1.79-2.42-3.58-3.63-5.36-.4-.59-.42-.59-1.13-.42-1.11.26-2.16.71-3.16,1.25-2.08,1.13-4.31,1.92-6.52,2.75-.35.13-.55.1-.74-.24-.89-1.63-2.07-3.07-3.01-4.66-.4-.68-.92-.91-1.73-.81-3.36.42-6.71.84-10.05,1.4-.41.06-.64-.02-.89-.35-1.56-2.08-2.89-4.28-4.32-6.43-.03-.04-.03-.09-.06-.21.3-.09.57-.17.84-.25,1.09-.34,2.18-.67,3.19-1.19.68-.35.7-.85.08-1.28-.12-.09-.24-.16-.36-.24-1.95-1.17-3.9-2.34-5.85-3.52-.98-.59-2.01-1.11-2.94-1.79-1.28-.93-2.68-1.69-3.98-2.57-.64-.44-1.09-.23-1.21.52-.07.41-.1.83-.12,1.25-.19,4.13-.18,8.28-.04,12.42.02.65.11,1.3.2,1.95.09.58.42.72.89.42.08-.05.15-.12.22-.18.66-.56,1.32-1.12,1.93-1.74.32-.33.66-.64,1.04-.88.24.11.29.3.38.46.45.8.9,1.61,1.34,2.42,1.48,2.75,2.73,5.6,4.25,8.33.36.66.36.65,1.11.6,3.26-.23,6.47-.86,9.7-1.32.49-.07.71.06.98.43Z"/>
      <path class="cls-1" d="M868.71,520.37c.45.85.89,1.71,1.37,2.62-.49-.27-1.15-1.47-1.37-2.62Z"/>
      <path class="cls-1" d="M898.32,524.58c-.65.25-1.3.51-1.95.76.34-.39,1-.66,1.91-.84.02.03.03.05.05.08Z"/>
      <path class="cls-1" d="M867.57,518.7c-.44-.53-.61-1.09-.86-1.73.56.63.82,1.15.86,1.73Z"/>
      <path class="cls-1" d="M885.7,519.63c-.34-.31-.47-.73-.81-1.17.44.27.52.38.81,1.17Z"/>
      <path class="cls-1" d="M898.28,524.5c.22-.17.47-.21.74-.21-.19.2-.43.27-.7.29-.02-.03-.03-.05-.05-.08Z"/>
      <path class="cls-1" d="M896.36,520.96c.22.06.42.35.34.52-.1.22-.31.28-.52.22-.24-.07-.31-.28-.24-.5.06-.19.2-.3.42-.25Z"/>
      <path class="cls-1" d="M900.15,521.79c-.23-.09-.33-.26-.28-.49.05-.21.22-.29.43-.23.22.06.29.23.25.44-.04.21-.17.32-.4.28Z"/>
      <path class="cls-1" d="M898.25,520.27c.06-.21.19-.35.41-.3.23.06.27.24.22.44-.05.19-.15.36-.4.29-.24-.06-.26-.25-.23-.44Z"/>
    </g>
    <g>
      <path class="cls-1" d="M943.57,434.33c-.13-.44-.04-.71.24-1.05,2.51-3.03,3.85-6.49,3.95-10.43.16-6.2-3.25-11.54-8.28-14.32-.63-.35-1.29-.65-1.97-.92-.61.07-1.21.13-1.81.17.88.24,1.74.55,2.55.94,4.57,2.18,7.95,6.52,8.63,11.91,1.08,8.68-5.28,16.74-14.13,17.91-9.09,1.19-17.2-5.46-17.62-14.45-.07-1.33.02-2.65.31-3.87.42-2.19,1.28-4.11,2.48-5.88.3-.44.31-.44.76-.13.66.44,1.31.88,1.96,1.33q.57.4.24.96c-1.64,2.77-2.15,5.75-1.3,8.87,1.25,4.59,4.27,7.59,9.02,8.71,5.23,1.24,10.51-1.27,12.97-5.99,2.53-4.87,1.25-10.93-3.06-14.46-4.88-4.01-12-3.57-16.23,1-.63.69-.63.68-1.44.13-.56-.37-1.12-.74-1.67-1.13-.48-.33-.48-.34-.09-.78.33-.37.67-.72,1.01-1.05-.94.51-1.94.96-2.98,1.36.13.05.25.12.32.22.19.27-.11.41-.2.6-.04.09-.1.16-.15.24-2.07,3.21-3,6.72-2.67,10.54.22,2.61,1.06,5.03,2.49,7.27.14.21.32.39.1.68-.61.77-1.02,1.66-1.5,2.51-.42.75-.8,1.52-1.02,2.36-.17.62-.22,1.24.26,1.79.89,1.01,2.06,1.34,3.36,1.33.37,0,.64-.3.99-.36,1.52-.26,2.54-1.08,3.06-2.49,0-.02.02-.04.03-.06.27-.51.28-.52.8-.24,1.22.63,2.5,1.11,3.84,1.42,3.17.74,6.28.56,9.32-.45.24-.08.47-.21.74-.21.28.63.34,1.25.37,1.88.03.81.03,1.63.09,2.44.05.78.43,1.19,1.19,1.41.29.08.57.07.86.06,1.48-.08,2.67-.66,3.65-1.76,1.12-1.25,1.56-2.66,1.32-4.3-.18-1.25-.41-2.49-.79-3.71ZM921.9,416.45c1.42,1.04,2.87,2.01,4.26,3.07.32.25.23.43.09.71-1.12,2.34-.36,4.92,1.84,6.26,2.33,1.43,5.41.8,6.89-1.41,1.47-2.19.88-5.08-1.4-6.63-1.94-1.31-4.4-1.07-6.02.21-.11.08-.23.17-.32.27-.19.22-.37.24-.6.04-1.26-1.03-2.64-1.9-3.94-2.88-.41-.3-.41-.32-.08-.69,2.42-2.68,5.47-4,9.19-3.71,5.93.45,10.55,5.55,10.26,11.56-.25,5.15-3.92,9.3-8.95,10.21-6.27,1.13-12.29-3.29-13.07-9.61-.29-2.42.18-4.68,1.38-6.78.11-.2.2-.42.47-.62ZM930.47,422.15c-.08-.08-.18-.16-.27-.24-.02-.01-.03-.03-.05-.04-.11-.1-.23-.19-.34-.29-.61-.52-1.22-1.05-1.84-1.57-.03-.03-.07-.06-.09-.08-.21-.18-.26-.25-.16-.38h0c.05-.06.12-.13.22-.22.32-.28.69-.5,1.08-.66.08-.04.16-.07.25-.1.38-.13.78-.2,1.19-.22.09,0,.19-.01.29-.01.45.01.91.08,1.34.23.08.02.16.05.23.08.51.19.99.49,1.39.88.05.04.09.08.14.13.14.15.27.3.37.46.45.59.7,1.27.76,1.96v.02c.03.24.03.47,0,.69-.05.63-.25,1.25-.61,1.8-.07.12-.15.23-.24.34-.11.14-.23.27-.36.4-.19.18-.4.35-.62.49-.11.07-.22.13-.33.19-.34.18-.71.31-1.08.39-.14.04-.29.06-.43.07-.42.06-.85.05-1.26-.03-.39-.05-.77-.17-1.12-.34-.14-.06-.27-.14-.39-.2-.16-.11-.32-.21-.46-.32-1.12-.88-1.71-2.21-1.56-3.67,0-.03.01-.05.01-.08.02-.2.07-.4.14-.6.1-.3.26-.61.48-.93.3.23.59.45.87.67.13.1.25.2.37.3.28.22.54.45.8.68.27.24.55.46.83.69.04.04.09.07.13.09.1.05.2.06.3-.01.03-.01.05-.03.08-.06.15-.17.08-.35-.06-.51ZM918.77,439.12c-.24.72-.67.95-1.43.79-.64-.13-1.26-.28-1.76-.75-.37-.34-.51-.7-.4-1.19.18-.82.56-1.56.93-2.31.44-.86.89-1.72,1.49-2.63.82,1.03,1.63,1.89,2.56,2.64.22.18.18.33.04.53-.58.92-1.1,1.88-1.43,2.92ZM921.66,437.15c-.08.12-.14.25-.2.38-.04.05-.06.11-.08.16-.18.35-.34.71-.58,1.02,0,0,.01,0,0,.01-.02.03-.05.06-.08.09-.12.15-.26.27-.42.35-.06.05-.13.08-.2.1-.18.08-.38.13-.6.16.08-.32.19-.61.32-.9.03-.09.07-.17.11-.25.1-.23.21-.44.33-.66.01-.02.03-.04.04-.07.17-.3.35-.59.52-.89.05-.08.11-.14.17-.17.03-.02.06-.03.09-.03h0c.08,0,.16.04.26.12.18.15.52.23.31.58ZM941.95,441.88c-.08.51-.36.83-.82,1.05-.64.29-1.32.41-2.01.42-.71.01-1-.26-1.05-.96-.05-.67-.07-1.34-.09-2.02-.03-.68-.11-1.34-.32-2-.06-.19-.14-.39.15-.52,1.12-.5,2.16-1.13,3.18-1.88.6,1.28.92,2.57,1.02,3.9.06.67.05,1.34-.06,2.01ZM943.67,439.12c0,.06,0,.13-.01.19-.03.28-.08.56-.17.83-.01.07-.04.13-.06.2-.09.27-.22.54-.36.8-.04.08-.09.16-.25.17-.02-.34-.03-.68-.03-1.02v-.18c-.01-.29-.02-.57-.06-.86,0-.05-.01-.09-.02-.14-.01-.09-.02-.17-.04-.26-.05-.27-.11-.54-.17-.81-.01-.06-.03-.11-.05-.17-.07-.35-.16-.7-.28-1.05-.01-.03-.02-.06-.04-.09-.06-.17-.12-.34-.2-.51-.11-.25-.18-.49-.15-.69.01-.09.03-.16.08-.24.07-.13.19-.26.38-.37.17-.11.31-.27.54-.48.11.29.2.58.27.87.03.08.05.17.07.26.08.37.15.74.23,1.11h0c.02.09.03.16.05.24.06.3.11.6.16.91.02.09.03.19.05.29.01.05.01.09.02.14.04.29.06.58.04.86Z"/>
      <path class="cls-1" d="M930.43,417.83c.27.17.27.35.32.5.76,2.39,1.52,4.78,2.28,7.17.06.18.27.47,0,.55-.29.08-.34-.27-.41-.48-.34-1.02-.69-2.05-.99-3.08-.37-1.26-.71-2.53-1.07-3.79-.07-.26-.18-.52-.14-.87Z"/>
      <path class="cls-1" d="M929.01,418.21c.26.05.23.25.28.39.17.56.34,1.12.47,1.69.44,1.94,1.2,3.79,1.82,5.68.08.25.35.67.09.74-.44.12-.34-.4-.42-.64-.82-2.37-1.57-4.75-2.15-7.19-.05-.22-.18-.43-.08-.66Z"/>
      <path class="cls-1" d="M943.48,414.68c.53.51.85,1.13,1.12,1.78.62,1.5,1.08,3.05,1.36,4.64.22,1.25.1,2.5-.12,3.73-.03.15-.04.33-.32.39.82-3.78-.29-7.21-2.04-10.54Z"/>
      <path class="cls-1" d="M932.02,417.98c.25.36,2.06,5.49,2.37,6.69.04.17.16.35,0,.53-.32-.26-.36-.33-.79-1.64-.21-.62-.41-1.25-.61-1.88-.19-.6-.37-1.21-.54-1.82-.17-.59-.42-1.17-.43-1.88Z"/>
      <path class="cls-1" d="M921.61,423.95c.43,1.19.81,2.39,1.4,3.51.59,1.1,1.42,2.04,2.37,3.07-1.54-.52-3.66-4.25-3.77-6.58Z"/>
      <path class="cls-1" d="M927.52,419.1c.31.5,2.55,6.78,2.62,7.33-.25.06-.27-.13-.32-.28-.35-.97-.73-1.94-1.04-2.92-.37-1.16-.76-2.32-1.18-3.47-.08-.21-.23-.42-.08-.67Z"/>
      <path class="cls-1" d="M928.69,426.57c-.33-.33-.5-.72-.65-1.1-.4-1-.77-2.01-1.16-3.02-.06-.15-.13-.3-.18-.46-.07-.22-.19-.2-.34-.09,0-.04-.03-.11-.01-.13.28-.32-.09-.61-.06-.93.29-.06.3.18.36.33.4,1.03.78,2.06,1.18,3.08.25.66.5,1.31.87,1.92.06.09.15.19-.01.4Z"/>
      <path class="cls-1" d="M935.35,423.49c-.42-.57-1.75-4-1.84-4.72.08.06-.03-.03.06-.03.02,0,.06,0,.07.01.62,1.32,1.08,2.69,1.61,4.04.08.19.18.38.1.69Z"/>
      <path class="cls-1" d="M943.56,435.4c-.37.28-1.36.29-2.18.02.31-.2,1.4-.21,2.18-.02Z"/>
      <path class="cls-1" d="M942.14,437.95c.61-.19,1.56-.17,2.03,0-.46.24-1.18.25-2.03,0Z"/>
      <path class="cls-1" d="M942.36,413.47c-.54-.49-1.09-.95-1.58-1.48.71.3,1.27.77,1.58,1.48Z"/>
      <path class="cls-1" d="M941.97,436.75c.64-.09,1.27-.18,1.9.08-.63.14-1.27.21-1.9-.08Z"/>
      <path class="cls-1" d="M923.55,425.85c-.4-.63-.42-1.32-.41-2.03.26.65.39,1.32.41,2.03Z"/>
      <path class="cls-1" d="M942.43,439.14c.56-.11,1.1-.07,1.65.06-.55.23-1.1.18-1.65-.06Z"/>
      <path class="cls-1" d="M920.22,437.41c.34.47.59.97.62,1.55-.38-.46-.49-1-.62-1.55Z"/>
      <path class="cls-1" d="M920.44,439.68c-.45-.42-.69-1.05-.65-1.63.34.5.48,1.01.65,1.63Z"/>
      <path class="cls-1" d="M920.97,436.25c.38.63.5,1.03.53,1.65-.35-.55-.49-1.08-.53-1.65Z"/>
      <path class="cls-1" d="M926.44,431.26c.56.02.88.35,1.35.4-.51.23-.78.16-1.35-.4Z"/>
      <path class="cls-1" d="M943.78,440.24c-.39.2-.78.14-1.28-.02.49-.24.89-.13,1.28.02Z"/>
      <path class="cls-1" d="M918.75,427.15c-.08.29-.3.41-.54.32-.19-.07-.26-.23-.2-.39.07-.22.21-.45.49-.41.28.04.29.27.25.48Z"/>
      <path class="cls-1" d="M916.54,426.71c-.23-.06-.32-.21-.25-.42.08-.21.16-.47.47-.39.26.07.28.29.24.51-.05.24-.22.34-.46.3Z"/>
      <path class="cls-1" d="M917.5,428.72c.22.06.3.22.27.42-.03.22-.2.32-.41.27-.22-.06-.28-.24-.24-.44.04-.18.17-.27.37-.24Z"/>
      <path class="cls-1" d="M944.16,428.67c-.05.26-.2.36-.41.32-.18-.03-.28-.17-.26-.36.03-.22.18-.32.4-.27.17.04.29.15.28.31Z"/>
    </g>
    <g>
      <path class="cls-1" d="M827.86,491.07c-.01.15-.09.25-.19.36-.13.14-.25.29-.47.2-.2-.08-.27-.25-.29-.44-.04-.31.14-.53.3-.74.12-.16.34-.12.5.04.15.17.18.37.16.59Z"/>
      <path class="cls-1" d="M828.55,494.19c.02-.28.19-.4.47-.38.28.02.52.4.46.69-.05.23-.33.4-.61.35-.3-.05-.4-.26-.32-.66Z"/>
      <path class="cls-1" d="M826.14,493.09c-.06.21-.18.29-.37.26-.2-.04-.27-.18-.22-.36.05-.19.2-.24.39-.19.16.04.21.17.21.29Z"/>
    </g>
  </g>
  <path class="cls-4" d="M1009.57,406.36c-37.36-8.8-125.38,13.04-125.38,13.04l62.4-71.63c-15.18,7.14-105.73,95.73-105.73,95.73l-156.97,143.93s-.01.09-.02.13c.06.07.1.16.15.23l53.51-37.64c13.87,5.81,19.84,13.01,28.6,27.29,8.74,14.28,13.39,49.12,13.87,44.64.5-4.48,14.34-37.21,14.34-37.21,20.05-50.06,62.7-54.13,89.14-57.44,26.45-3.31,47.61,5.97,47.61,5.97,0,0-6.42-36.51.42-70.5,6.84-33.99,69.89-50.85,76.29-52.8,6.42-1.95,1.77-3.73,1.77-3.73Z"/>
  <rect class="cls-2" x="469.07" y="716.96" width="614.7" height="3.55"/>
  <path class="cls-2" d="M637.94,707.84c-.69,0-1.37,0-2.06-.01-.01,0-.02,0-.03,0h.03l2.06.02Z"/>
  <path class="cls-2" d="M653.41,707.93l-12.15-.08c3.77.01,7.69,0,12.05,0l.1.08Z"/>
  <path class="cls-2" d="M637.94,707.84c-.69,0-1.37,0-2.06-.01-.01,0-.02,0-.03,0h.03l2.06.02Z"/>
  <path class="cls-2" d="M653.41,707.85h-.1c-4.36,0-8.28.01-12.05,0-.42.01-.84,0-1.25,0-.7,0-1.38,0-2.07-.01l-2.06-.02-.25-.72-4.32-12.89-.95-2.84.95-1.37c3.96-5.25,7.99-10.45,12.76-16.68,3.24,11.98,6.18,22.86,9.34,34.53Z"/>
  <path class="cls-2" d="M647.39,661.66l-24.73,28.93h-.01s-32.32,16.69-32.32,16.69l-1.95,1-5.26-.1h0l-11.85-.22-1.38-.03c6.31-11.03,12.28-21.52,18.29-31.99,7.26-12.65,14.64-25.23,21.78-37.94,1.8-3.21,3.76-5.04,7.7-4.67,4.98.46,11.34-1.37,14.63,1.09,3.25,2.44,3.5,8.97,4.92,13.74,1.29,4.31,2.38,8.66,3.68,13.44-6.04,2.96-11.61,5.68-17.62,8.61-1.32-4.15-2.48-7.81-4.12-12.96-2.3,3.94-4.44,7.61-6.51,11.15l-.88,1.51-9.46,16.14,18.55-11.23.03-.02c8.84-4.38,17.68-8.76,26.52-13.14Z"/>
  <path class="cls-2" d="M568.83,655.95c2.93-12.12-2.5-21.07-12.63-21.61-7.83-.41-15.67-.48-23.56-.44-9,.04-18.06.22-27.25.22-3.39,24.66-6.71,49.02-10.11,73.68,18.29,0,36.26,1.27,53.96-.33,15.78-1.42,22.65-12.68,22.65-23.33v-.16c0-.34-.01-.68-.03-1.01-.01-.39-.03-.78-.08-1.17-.03-.29-.06-.58-.1-.87-.04-.28-.08-.57-.13-.86-.04-.28-.1-.57-.16-.85-.05-.23-.1-.45-.15-.68-.02-.06-.03-.13-.04-.19-.06-.23-.12-.47-.19-.69-.06-.23-.14-.46-.21-.69-.03-.11-.06-.22-.1-.33-.15-.45-.31-.89-.48-1.32-.03-.06-.05-.12-.07-.18-.1-.25-.2-.49-.3-.73.01-.01,0-.02,0-.03-1.37-3.07-3.38-5.78-5.87-7.94,0,0,4.78-10.14,4.86-10.49ZM522.21,650.54c.25-1.05,2.37-2.28,3.69-2.35.08,0,.16-.01.24-.01,5.28-.27,10.56-.13,15.85-.16,4.14-.02,7.76.95,8.42,5.77.36,2.6-.98,5.43-3.22,7.21-1.25,1-2.77,1.66-4.43,1.78-.9.06-1.81.11-2.72.14-3.17.14-6.38.13-9.72.09-3.13-.03-6.38-.1-9.81-.1.57-4.6.81-8.56,1.7-12.37ZM546.98,691.99c-6.09.77-12.26.97-18.43,1.12-3.32.08-6.65.14-9.97.27-.32.02-.93-.22-.93-.33.09-4.35.02-8.73.54-13.03.13-.94,2.42-2.15,3.8-2.26,1.86-.15,3.72-.18,5.59-.17,1.94.02,3.89.07,5.83.07h0c3.81.01,7.64-.14,11.43.07,3.46.17,6.65,1.27,7.38,5.27.78,4.4-1.44,8.52-5.24,8.99Z"/>
  <path class="cls-2" d="M821.94,633.34c-3.21,4.52-5.52,8.72-8.79,11.95-1.74,1.72-5.12,2.36-7.79,2.45-4.41.13-6.95.19-8.52.97-2.16,1.06-2.47,3.49-3.24,9.38-1.9,14.46-4.06,28.9-5.75,43.39-.59,5.04-2.58,6.96-7.66,6.37-3.74-.44-7.58-.09-12.25-.09,1.28-9.46,2.46-18.32,3.67-27.17,1.26-9.3,2.58-18.58,3.78-27.88.17-1.3.4-2.99-.17-4h-12.93l-8.95-15.37h68.6Z"/>
  <path class="cls-2" d="M821.95,633.34l-8.72,15.37h-16.39c1.57-.78,4.11-.84,8.52-.97,2.67-.09,6.05-.73,7.79-2.45,3.27-3.23,5.58-7.43,8.79-11.95h.01Z"/>
  <path class="cls-2" d="M719.74,633.34l-8.93,15.37h-18.17c-1.14,1-1.36,3.03-1.88,7.12-2,15.86-4.18,31.7-6.22,47.55-.4,3.04-1.53,4.71-4.97,4.54-4.65-.24-9.32-.06-14.71-.06,2.73-20.32,5.33-39.71,7.87-58.7-.63-.17-1.25-.32-1.88-.45h-12.13l-9.16-15.37h70.18Z"/>
</svg>